<?xml version="1.0" encoding="UTF-8"?>
<svg id="Layer_1" data-name="Layer 1" xmlns="http://www.w3.org/2000/svg" viewBox="0 0 500 500">
  <defs>
    <style>
      .cls-1 {
        fill: #efefef;
      }
    </style>
  </defs>
  <path class="cls-1" d="M210.36,218.37h-51.65l-.78,56.36h51.89l1.58,142.06h57.15c1.69,0,3.06-1.37,3.06-3.06l.24-138.49,41.4-.18c2.17,0,4.03-1.56,4.43-3.69l9.55-50.63c.43-2.26-1.31-4.35-3.61-4.33l-50.4,.25,.3-42.93c-.34-18.86,8.58-19.59,19.24-22.18,9.33-2.26,21.81-2.51,35.3-1.98v-47.65l-34.3-1.47c-43.27,.1-69.83,8.76-79.99,44.93-2.33,8.28-3.35,16.87-3.36,25.47l-.04,47.5Z"/>
</svg>