<?xml version="1.0" encoding="UTF-8"?>
<svg id="Layer_1" data-name="Layer 1" xmlns="http://www.w3.org/2000/svg" viewBox="0 0 500 500">
  <defs>
    <style>
      .cls-1 {
        fill: #efefef;
      }
    </style>
  </defs>
  <g id="yghfVQ.tif">
    <path class="cls-1" d="M219.1,280.31c-45.18-60.23-89.82-119.73-135.51-180.63,4.41-.53,7.31-1.18,10.22-1.19,28.23-.08,56.48-.41,84.69,.29,5,.12,11.54,3.37,14.59,7.32,26.08,33.78,51.52,68.06,77.17,102.18,2.16,2.87,4.48,5.61,7.28,9.09,23.42-25.15,46.4-49.83,69.37-74.5,9.34-10.03,19.97-19.16,27.68-30.31,10.91-15.77,25.3-15.53,43.1-13.02-42.68,46.02-84.43,91.04-126.6,136.51,47.7,63.61,95.17,126.91,144.07,192.12-35.37,0-68.28,.22-101.17-.34-3.32-.06-7.27-4.37-9.73-7.62-27.23-35.95-54.22-72.09-81.3-108.16-3.09-4.12-6.32-8.12-10.2-13.09-15.41,16.48-30.21,32.26-44.96,48.09-20.59,22.12-42.38,43.3-61.27,66.79-12.18,15.15-25.78,16.12-43.61,13.23,45.59-49.13,90.42-97.43,136.17-146.74Zm170.24,125.7c-1.87-3.17-2.67-4.87-3.77-6.35-68.29-91.09-136.6-182.17-204.98-273.2-1.6-2.13-3.97-5.14-6.06-5.2-14.93-.45-29.87-.24-46.61-.24,9.07,12.15,16.5,22.16,23.98,32.13,61.08,81.42,122.13,162.87,183.36,244.17,2.67,3.54,6.85,8.03,10.6,8.3,13.88,.99,27.87,.39,43.47,.39Z"/>
  </g>
</svg>