<?xml version="1.0" encoding="UTF-8"?>
<svg id="Layer_1" data-name="Layer 1" xmlns="http://www.w3.org/2000/svg" viewBox="0 0 500 500">
  <defs>
    <style>
      .cls-1 {
        fill: #efefef;
      }
    </style>
  </defs>
  <g id="fhHdkl.tif">
    <g>
      <path class="cls-1" d="M214.21,96.48c27.8,0,55.59,0,83.39,0,.37,.06,.73,.18,1.1,.19,8.46,.27,16.93,.48,25.38,.8,9.78,.38,19.46,1.5,28.97,3.89,21.41,5.37,38.82,16.7,51.5,34.88,10.29,14.76,15.02,31.54,16.41,49.25,.89,11.35,1.02,22.76,1.5,34.14,.03,.64,.14,1.27,.21,1.91v83.38c-.11,2.81-.22,5.62-.32,8.42-.45,13.23-.52,26.48-2.95,39.56-2.48,13.36-6.92,25.99-14.75,37.2-15.32,21.92-36.91,33.35-62.93,37.27-11.25,1.7-22.59,2.06-33.93,2.22-37.77,.54-75.55,.81-113.32-.3-9.44-.28-18.86-.81-28.18-2.56-13.41-2.52-26.1-6.94-37.35-14.82-21.91-15.34-33.31-36.94-37.23-62.95-1.63-10.82-2.02-21.72-2.19-32.62-.58-38.26-.84-76.52,.28-114.78,.34-11.5,1.17-22.96,3.86-34.21,5.11-21.33,16.03-38.88,33.87-51.83,15.01-10.89,32.2-15.86,50.43-17.34,11.29-.92,22.65-1.02,33.98-1.51,.75-.03,1.5-.14,2.24-.22Zm-95.45,174.88c.32,15.11,.72,38.34,1.35,61.55,.24,8.81,1.66,17.48,4.51,25.87,5.18,15.28,14.96,26.49,29.61,33.29,9.94,4.61,20.58,6.44,31.43,6.91,12.74,.54,25.5,1.03,38.25,1.01,31.75-.05,63.5-.33,95.25-.67,9.89-.11,19.7-1.13,29.28-3.86,13.46-3.84,24.32-11.32,32.13-22.97,6.43-9.6,9.47-20.47,10.41-31.82,.92-11.08,1.56-22.21,1.6-33.32,.12-33.22-.03-66.43-.28-99.65-.07-9.54-.47-19.1-2.21-28.53-1.66-9.04-4.43-17.68-9.62-25.36-8.96-13.24-21.67-20.75-37.09-24.11-10.46-2.28-21.1-2.8-31.72-2.85-37.18-.17-74.36-.15-111.54,0-9.48,.04-18.99,.47-28.37,2.21-9.42,1.74-18.4,4.69-26.29,10.3-12.67,8.99-19.88,21.48-23.12,36.49-2.33,10.79-2.67,21.75-2.88,32.7-.35,18.23-.43,36.47-.7,62.83Z"/>
      <path class="cls-1" d="M255.92,177.64c47.24,0,85.71,38.51,85.6,85.69-.11,47.23-38.44,85.51-85.62,85.51-47.24,0-85.71-38.51-85.6-85.69,.11-47.23,38.44-85.51,85.62-85.51Zm55.71,85.67c.02-30.8-24.82-55.72-55.61-55.79-30.78-.07-55.78,24.82-55.83,55.57-.05,30.88,24.84,55.85,55.69,55.87,30.78,.02,55.73-24.88,55.75-55.65Z"/>
      <path class="cls-1" d="M344.72,194.33c-11.05-.05-19.94-8.99-19.89-20.02,.05-11.13,9.01-19.95,20.18-19.88,11.01,.07,19.78,9.05,19.72,20.17-.07,10.92-9.04,19.77-20.01,19.73Z"/>
    </g>
  </g>
</svg>