<?xml version="1.0" encoding="UTF-8"?>
<svg id="Layer_1" data-name="Layer 1" xmlns="http://www.w3.org/2000/svg" viewBox="0 0 1700 485">
  <defs>
    <style>
      .cls-1 {
        fill: #fff;
      }
    </style>
  </defs>
  <path class="cls-1" d="M312.72,295.03c-.99-5.16-1.19-20.92-.46-28.98,1.34-1.57,3.18-1.12,4.85-1.12,13.05-.04,26.11,0,39.16-.04,2.17,0,4.36-.06,6.5-.36,1.91-.26,2.98-1.77,2.8-3.76-.14-1.5-.45-3.01-.89-4.45-4.3-14.07-13.56-23.63-27.13-28.88-11.96-4.62-24.25-4.93-36.46-.97-17.18,5.57-27.72,17.59-31.91,34.92-3.84,15.85-2.43,31.57,3.22,46.83,4.14,11.18,11.87,19.2,22.84,23.79,15.64,6.55,31.69,7.16,47.84,2.04,10.19-3.23,17.79-9.87,23.19-19.01,2.54-4.3,4.72-8.82,7.13-13.2,6.92-12.57,13.71-25.22,20.86-37.66,6.73-11.7,14.37-22.82,22.41-33.66,8.23-11.09,17.99-20.67,28.88-29.09,12.89-9.97,27.69-15.36,43.71-17.45,12.11-1.58,24.27-2.05,36.43-.23,24.12,3.6,44.62,14.04,60.86,32.4,6.56,7.41,11.42,15.93,14.71,25.23,7.59,21.44,9.25,43.4,3.77,65.5-8.11,32.72-28.78,54.66-60.19,66.02-23.93,8.65-48.36,7.99-72.33-.28-22.08-7.62-37.54-22.98-48.15-43.53-1.92-3.73-2.12-7.35-.41-11.26,7.08-16.19,15.5-31.61,25.52-46.18,2.72-3.96,6.06-5.68,10.94-5.63,16.97,.2,33.94,.07,50.91,.09,1.5,0,3.01,.15,4.77,.25,1.58,4.94,.63,9.93,.78,14.83,.15,4.74-.03,9.5-.07,14.65-2.01,.22-3.66,.56-5.32,.57-11.1,.05-22.19,.01-33.29,.04-3.26,0-6.54-.04-9.78,.22-4.88,.4-5.95,2.07-4.79,6.96,.2,.84,.54,1.65,.82,2.48,4.59,13.65,13.63,23.02,27.13,28.03,10.69,3.97,21.65,4.88,32.7,1.93,18.9-5.06,30.81-17.3,35.57-36.22,4-15.9,2.41-31.54-3.47-46.74-4.3-11.11-12.25-18.84-23.04-23.69-11.45-5.15-23.48-6.15-35.77-4.48-13.3,1.81-24.89,7.49-35.07,16.14-8.85,7.51-16.3,16.29-23.12,25.62-9.02,12.34-16.31,25.69-22.8,39.49-3.33,7.08-6.44,14.27-9.82,21.33-7.92,16.55-19.98,29.43-35.48,39.08-9.35,5.82-19.55,9.41-30.52,10.75-15.65,1.91-31.21,1.96-46.72-1.38-11.69-2.52-22.31-7.31-31.73-14.59-20.54-15.88-33.98-36.41-39.73-61.81-1.79-7.9-2.17-15.95-1.74-24.01,.38-7.17,1.21-14.31,3.02-21.28,8.59-33.19,29.63-54.97,61.59-66.34,14.98-5.33,30.56-6.33,46.36-4.59,8.47,.93,16.72,2.69,24.75,5.57,18.55,6.65,32.6,18.8,43.19,35.19,.7,1.09,1.34,2.25,1.83,3.45,.69,1.68,.64,3.44-.27,5.04-.75,1.32-1.62,2.58-2.53,3.79-11.86,15.66-21.91,32.42-30.73,49.95-4.38,8.69-4.93,9.04-14.5,9.06-11.53,.02-23.06,.02-34.59,0-2.11,0-4.23-.21-6.22-.31Z"/>
  <path class="cls-1" d="M803.83,130.71c11.11-.87,42.37-.56,47.15,.47,1.11,2.21,.64,4.63,.64,6.97,.05,14.8,0,29.59,.05,44.39,0,2.35-.46,4.78,.85,7.47,1.73,.11,3.61,.34,5.5,.35,13.49,.03,26.98,.02,40.47,.02,2.15,0,4.29,0,6.7,0,.31,1.39,.72,2.4,.72,3.41,.03,12.18,0,24.37-.03,36.55,0,.42-.19,.84-.31,1.35-1.48,1.65-3.55,1.13-5.42,1.13-13.27,.05-26.55,.02-39.82,.03-2.37,0-4.75,.1-7.41,.16-.31,1.72-.81,3.16-.81,4.6-.02,25.67-.02,51.35,.12,77.02,.01,2.78,.63,5.63,1.44,8.31,2.25,7.43,7.43,11.58,15.1,12.46,7.21,.82,14.33,.22,21.3-1.92,2.03-.63,4.09-1.18,6.05-1.74,2.44,4.45,8.77,24.51,11.97,37.84-1.12,.68-2.28,1.6-3.6,2.16-7.86,3.36-16.18,5.11-24.57,6.34-10.82,1.59-21.67,1.64-32.45-.67-23.13-4.94-36.79-19.36-41.99-42.11-1.85-8.08-2.44-16.35-2.47-24.63-.08-23.28-.09-46.56-.14-69.85,0-2.34-.16-4.68-.26-7.33-2.11-.14-3.79-.34-5.47-.36-6.31-.08-12.62-.05-18.93-.16-5.93-.1-11.67,.75-17.35,2.49-8.73,2.66-17.54,5.09-26.29,7.66-2.1,.62-4.16,1.16-6.46,.7-1.53-1.86-2.96-3.78-4.57-5.52-11.93-12.85-26.42-17.85-43.69-13.92-4.73,1.08-9.02,3.23-12.7,6.41-6.82,5.91-6.32,14.14,1.19,19.21,4.01,2.71,8.57,4.23,13.17,5.55,10.86,3.12,21.75,6.15,32.61,9.29,12.13,3.5,24.08,7.55,35.37,13.27,4.06,2.06,8.06,4.34,11.74,7.01,8.13,5.91,12.67,14.06,14.36,23.98,1.34,7.85,1.07,15.64-.43,23.37-2.01,10.36-7.31,19.01-14.91,26.24-9.83,9.34-21.36,15.8-34.48,19.01-22.93,5.62-45.71,5.04-68.07-3.01-13.74-4.94-25.59-12.9-35.88-23.19-5.74-5.74-10.49-12.21-13.75-19.68-1.03-2.36-1.78-4.84-2.79-7.61,7.04-3.35,14.32-4.66,21.3-6.8,7.03-2.15,14.05-4.42,21.51-6.07,1.21,1.85,2.34,3.4,3.29,5.06,10.97,19.27,28.2,26.04,49.44,24.8,2.6-.15,5.19-.57,7.77-.95,5.79-.85,10.76-3.44,14.91-7.5,6.5-6.37,6.19-14.59-.73-20.46-4.04-3.43-8.85-5.51-13.86-7.08-7.26-2.27-14.57-4.37-21.85-6.58-9.98-3.03-19.99-6.01-29.93-9.18-7.06-2.25-13.88-5.1-20.23-8.97-9.61-5.86-16.86-13.83-20.44-24.58-5.4-16.2-2.07-30.98,8.65-44,9.24-11.23,21.18-18.78,35.11-22.69,26.63-7.48,52.53-5.31,77.35,7.24,12.73,6.44,22.89,15.71,30.19,28.04,.66,1.11,1.41,2.17,2.15,3.24,.11,.17,.35,.25,.54,.38,1.5-.29,1.27-1.52,1.27-2.53,.03-9.14,.01-18.28,.03-27.42,0-2.15,.11-4.3,.18-6.78,1.7-.27,3.13-.68,4.57-.69,6.31-.07,12.62-.02,18.93-.05,2.14,0,4.28-.14,6.38-.21,1.56-2.98,1.1-5.85,1.11-8.62,.04-14.36,0-28.72-.02-43.08,0-1.96-.04-3.92,.1-5.87,.06-.79,.57-1.54,.83-2.19Z"/>
  <path class="cls-1" d="M165.54,203.64c.78-7.99,.23-16.17,.33-24.33,.1-8.48,.02-16.96,.02-25.45v-24.79c0-8.25,0-16.51,0-24.89,1.05-.4,1.83-.95,2.6-.95,14.57-.03,29.14,0,43.71,.03,.4,0,.8,.27,1.7,.59,.17,.95,.5,2.15,.58,3.37,.11,1.73,.05,3.48,.05,5.22,0,82.87,0,165.73-.02,248.6,0,2.79,.52,5.65-.71,8.56-.72,.23-1.51,.68-2.33,.73-13.69,.82-27.38,1.01-41.08,.29-1.25-.07-2.49-.37-3.97-.6-1.05-6.27,.05-12.37-.78-18.89-1.15,.51-2.1,.81-2.89,1.33-.71,.47-1.26,1.19-1.86,1.82-11.76,12.3-26.27,19.18-43.03,21.07-13.96,1.58-27.81,.64-41.25-3.87-14.57-4.89-26.75-13.4-36.88-24.88-16.12-18.26-25.32-39.58-26.32-63.87-1.4-34.13,11.36-62.48,37.64-84.3,14.87-12.35,32.44-18.2,51.78-18.7,7.64-.2,15.22,.35,22.7,1.87,13.13,2.67,24.49,8.71,34.1,18.06,1.54,1.5,3.22,2.87,4.86,4.27,.09,.07,.38-.1,1.05-.29Zm2.24,73.1c-.74-4.93-1.1-9.96-2.3-14.77-3.98-16-13.55-27.46-28.83-33.92-2.99-1.26-6.08-2.38-9.22-3.21-16.16-4.24-31.01-1.54-44.36,8.67-11.47,8.76-18.03,20.36-19.98,34.62-3.36,24.47,8.78,46.36,27.31,57.1,23.32,13.52,56.76,6.78,70.7-21.36,4.22-8.52,6.26-17.56,6.68-27.13Z"/>
  <path class="cls-1" d="M1001.15,375.42c-.12-1.23-.31-2.47-.35-3.72-.8-28.43-.34-173.02,.62-179.79,2.67-1.02,5.69-1.12,8.68-1.27,17.07-.87,31.55-.45,37.99,1.11,1.68,5.95-.11,12.31,1.05,18.24,1.53,.9,2.31-.07,3.09-.7,1.01-.82,1.9-1.78,2.82-2.71,16.63-16.72,36.98-22.93,60.09-21.02,6.71,.55,13.39,1.53,19.86,3.57,16.86,5.31,29.32,15.79,37.13,31.65,5.85,11.87,8.92,24.51,9.32,37.71,.36,11.96,.35,23.92,.37,35.89,.03,24.36-.03,48.73-.07,73.09,0,2.57,.15,5.17-.72,8.09-7.85,.8-15.64,.25-23.39,.35-7.81,.1-15.62,.02-23.77,.02-.26-1.82-.63-3.26-.64-4.7-.04-10.22,0-20.45,0-30.67-.02-21.54-.07-43.07-.06-64.61,0-6.58-1-13.01-2.86-19.29-4.59-15.46-15.06-23.83-30.99-25.79-23.17-2.85-36.34,9.86-43.43,22.47-3.9,6.94-6.09,14.46-6.36,22.39-.35,10.21-.4,20.44-.42,30.66-.03,20.45,.06,40.9,.08,61.34,0,2.36-.12,4.72-.2,7.3-1.04,.32-1.83,.75-2.61,.76-14.35,.13-28.71,.21-43.06,.27-.59,0-1.19-.35-2.17-.66Z"/>
  <path class="cls-1" d="M1681.19,231.58c-4.41,2.41-33.7,11.22-41.59,12.65-2.05-.61-2.97-2.43-4.06-4.01-9.76-14.05-29.62-20.22-46.61-15.54-3.48,.96-6.9,2.77-9.86,4.88-9.2,6.55-8.73,15.84,1.06,21.3,3.57,1.99,7.52,3.41,11.45,4.62,7.89,2.43,15.88,4.53,23.83,6.78,14.65,4.14,29.19,8.61,42.93,15.32,1.76,.86,3.51,1.72,5.27,2.58,14.42,7.09,21.7,18.95,22.89,34.7,1.51,19.94-5.56,36.18-21.41,48.51-9.96,7.74-21.1,12.97-33.46,15.41-21.77,4.31-43.26,3.52-64.24-4.23-14.11-5.21-26.26-13.48-36.62-24.35-7.62-8-12.3-16.14-15.03-25.97,.81-.46,1.64-1.15,2.59-1.43,12.51-3.68,25.03-7.3,37.56-10.92,.61-.18,1.28-.13,2-.2,2.34,1.15,2.98,3.61,4.15,5.62,4.83,8.31,11.33,14.88,20.08,18.97,9.25,4.32,19.01,6.05,29.22,4.91,2.59-.29,5.19-.56,7.78-.9,6.06-.8,11.18-3.4,15.22-8.05,6.06-6.99,5.23-14.78-2.19-20.27-4.96-3.66-10.53-6.08-16.4-7.84-14.78-4.42-29.57-8.83-44.37-13.18-9.65-2.84-18.92-6.51-27.27-12.2-9.57-6.53-15.95-15.37-18.38-26.74-3.24-15.18-.24-28.97,10.16-40.77,9.28-10.54,20.69-17.99,34.19-21.83,19.88-5.66,39.93-6.13,59.84-.13,14.57,4.39,27.78,11.31,38.42,22.48,5.44,5.7,9.98,12.02,12.87,19.84Z"/>
  <path class="cls-1" d="M1384.91,246.04c-.91,.51-1.59,1.1-2.38,1.32-13.79,3.79-27.42,8.13-41.61,11.72-1.07-1.96-2.02-3.63-2.89-5.33-7.41-14.51-19.32-22.41-35.4-24.53-8.39-1.11-16.56-.53-24.41,2.38-19.16,7.09-29.62,21.38-32.67,41.2-1.3,8.41-.97,16.91,1.1,25.27,2.18,8.82,6.21,16.69,12.08,23.58,8.16,9.57,18.76,14.65,31.11,16.05,8.54,.97,16.92-.08,24.99-3.23,9.19-3.59,16.65-9.29,21.91-17.74,1.6-2.56,3.26-5.08,4.85-7.54,1.01,0,1.69-.14,2.28,.02,13.21,3.6,26.4,7.23,39.59,10.89,.58,.16,1.07,.66,1.9,1.2-.07,3.69-1.53,7.07-3.12,10.35-4.88,10.1-11.38,19.04-19.91,26.37-13.86,11.9-29.72,19.5-47.95,21.86-11.23,1.45-22.48,2.73-33.79,1.21-4.72-.63-9.53-1.27-14.05-2.7-36.79-11.71-60.41-35.62-68.28-74.1-3.57-17.42-3.16-34.72,2.25-51.57,11.07-34.51,34.74-56.13,69.75-64.69,20.7-5.06,41.51-3.67,61.67,3.59,21.13,7.61,36.81,21.84,48.24,40.94,2.45,4.1,4.19,8.5,4.72,13.47Z"/>
  <path class="cls-1" d="M1519.94,369.74c-6.28,3.48-12.34,5.06-18.49,6.44-12.19,2.72-24.44,3.97-36.9,2.22-5.85-.82-11.55-2.15-16.96-4.5-15.39-6.68-25.07-18.44-29.55-34.39-1.57-5.61-2.5-11.5-2.85-17.32-.63-10.19-.74-20.43-.79-30.65-.08-16.75,.06-33.5,.11-50.24,0-2.38,0-4.76,0-7.48-1.81-.28-3.24-.69-4.68-.7-6.31-.07-12.62-.01-18.92-.06-1.91-.01-3.82-.21-5.94-.34-.38-1.53-.89-2.74-.96-3.98-.75-12.38-.86-24.75,0-37.52,1.61-.28,3.02-.73,4.45-.75,6.09-.08,12.18-.02,18.27-.05,2.14-.01,4.29-.13,6.65-.21,1.42-3.26,1.12-6.52,1.13-9.72,.04-14.14,0-28.27,.04-42.41,0-2.35-.5-4.79,.71-7.01,5.22-.95,41.83-.97,47.68,.03,.95,2.33,.7,4.94,.7,7.5,0,14.79-.03,29.58-.04,44.37,0,2.14,.13,4.28,.2,6.19,1.97,1.75,4.01,1.18,5.89,1.18,13.49,.05,26.97,.02,40.46,.04,2.13,0,4.26,.17,6.12,.25,.43,.77,.81,1.13,.82,1.5,.1,11.96,.18,23.91,.23,35.87,0,1.28-.21,2.56-.36,4.23-1.8,.22-3.46,.58-5.13,.59-13.27,.12-26.53,.16-39.8,.25-2.37,.01-4.73,.09-7.36,.14-.37,1.79-.8,3.22-.92,4.67-.16,1.95-.08,3.91-.08,5.87-.03,22.19-.03,44.37-.1,66.56-.01,3.94,.18,7.83,1.29,11.62,2.23,7.63,7.24,12.14,15.13,13.47,5.46,.92,10.84,.29,16.2-.72,2.35-.45,4.64-1.16,6.98-1.61,1.66-.33,3.36-.43,5.4-.68,4.12,12.36,7.61,24.64,11.41,37.33Z"/>
  <path class="cls-1" d="M922.45,191.79c1.64-.28,2.47-.53,3.29-.53,14.14,0,28.28,.02,42.42,.07,.6,0,1.19,.4,2.13,.73,.1,1.87,.28,3.79,.3,5.71,.61,63.47,.21,172.28-.68,177.73-5.02,1.14-10.22,.42-15.36,.54-5.22,.12-10.44,.06-15.67,.02-5.18-.04-10.37,.23-15.91-.26-.2-1.52-.44-2.75-.5-3.99-.08-1.74-.03-3.48-.03-5.22,0-55.27,0-110.53,0-165.8v-9.01Z"/>
  <path class="cls-1" d="M947.79,107.99c21.9,.26,34.62,22.44,24.72,42.01-.68,1.35-1.52,2.66-2.49,3.81-7.91,9.4-18.33,12.53-29.93,10.24-10.95-2.15-17.75-9.74-20.93-20.29-5.56-18.43,9.27-36.36,28.64-35.78Z"/>
</svg>