<?xml version="1.0" encoding="UTF-8"?>
<svg id="Layer_1" data-name="Layer 1" xmlns="http://www.w3.org/2000/svg" viewBox="0 0 1548.13 514.6">
  <defs>
    <style>
      .cls-1 {
        font-size: 263.17px;
        letter-spacing: -.07em;
      }

      .cls-1, .cls-2, .cls-3 {
        font-family: EurostileExtended-Black, 'Eurostile Extended';
        font-weight: 800;
      }

      .cls-4 {
        fill: #f9d2b2;
      }

      .cls-5 {
        fill: #f7bd89;
      }

      .cls-6 {
        fill: #f8e386;
      }

      .cls-7, .cls-2 {
        fill: #fff4ed;
      }

      .cls-8 {
        fill: #ffcaf7;
      }

      .cls-9 {
        fill: #d5e6b4;
      }

      .cls-2 {
        font-size: 97.28px;
        letter-spacing: -.08em;
      }

      .cls-3 {
        font-size: 50.47px;
        letter-spacing: -.04em;
      }
    </style>
  </defs>
  <rect class="cls-7" x="-10.56" y="-21.18" width="1576.41" height="562.99"/>
  <g>
    <path d="M1260.21,447.87v-4.68c.36-.03,.69-.08,1.01-.08,2.06,0,4.12,0,6.18,0,.23,0,.46,0,.69,0,.84-.04,1.02-.26,.81-1.08-.53-2.02-1.72-3.56-3.54-4.59-3.84-2.18-8.96-.9-11.18,2.81-1.2,2.01-1.4,4.25-1.16,6.54,.09,.83,.23,1.67,.47,2.47,.97,3.3,3.3,5.03,6.63,5.48,1.56,.21,3.12,.19,4.66-.22,2.07-.56,3.56-1.85,4.56-3.73,1.11-2.09,2.15-4.22,3.37-6.24,1.52-2.51,3.11-4.99,4.84-7.36,1.03-1.4,2.35-2.61,3.64-3.78,2.66-2.4,5.9-3.41,9.43-3.59,2.61-.13,5.2,0,7.67,.95,5.94,2.29,9.26,6.62,9.88,12.97,.27,2.77,.09,5.52-.97,8.11-2.32,5.69-6.52,8.97-12.68,9.65-2.85,.31-5.64,.06-8.34-.93-3.59-1.32-6.09-3.83-7.79-7.2-.26-.51-.28-.97-.05-1.52,1.19-2.74,2.59-5.36,4.33-7.79,.27-.37,.51-.74,1.07-.74,3.2,.02,6.41,0,9.59,0,.27,.85,.32,3.44,.09,4.85-.31,.02-.64,.07-.98,.07-2.1,0-4.2,0-6.3,0-.27,0-.54,0-.8,.02-.48,.04-.67,.32-.58,.78,.04,.22,.1,.45,.17,.66,.68,2.12,2.05,3.65,4.09,4.53,2.49,1.08,6.71,1.16,9.45-1.72,1.53-1.61,2.14-3.58,2.32-5.71,.15-1.81-.15-3.59-.75-5.29-.91-2.59-2.81-4.14-5.46-4.72-3.65-.8-6.97-.09-9.85,2.38-1.78,1.53-3.26,3.32-4.55,5.27-1.41,2.14-2.61,4.4-3.61,6.76-.99,2.33-2.16,4.54-4.03,6.33-2.5,2.39-5.42,3.74-8.89,3.98-2.62,.18-5.18,.04-7.7-.73-5.77-1.79-9.75-6.7-10.39-12.7-.26-2.42-.15-4.8,.48-7.15,1.71-6.39,7.11-10.75,13.7-11.11,2.85-.15,5.64,.06,8.31,1.18,2.81,1.18,4.93,3.14,6.54,5.69,.33,.52,.36,.92-.04,1.44-2.19,2.86-4.01,5.94-5.61,9.17-.22,.44-.45,.77-1.01,.77-2.48-.02-4.96-.02-7.44-.03-.07,0-.13-.06-.3-.14Z"/>
    <path d="M1307.88,452.62c2.35-.68,4.64-1.35,6.95-2.02,.13,.22,.21,.34,.27,.47,1.39,3.15,5.13,5.23,9.68,4.25,.68-.15,1.37-.5,1.94-.93,1.46-1.1,1.43-2.8-.07-3.82-.68-.46-1.48-.79-2.27-1.04-2.55-.8-5.11-1.53-7.67-2.29-1.55-.46-3.03-1.05-4.34-2.01-3.48-2.55-4.14-7.26-1.41-10.61,1.97-2.42,4.6-3.75,7.63-4.24,3.11-.51,6.17-.28,9.12,.87,2.9,1.13,5.25,2.93,6.75,5.73,.06,.12,.16,.23,.4,.57v-6.52h5.08v-9.77h7.91v9.72h8.85c.02,2.33,.01,4.56,0,6.89h-8.75c-.04,.43-.09,.76-.09,1.09,0,3.89,0,7.79,0,11.68,0,.11,0,.23,0,.34,.11,2.57,1.36,3.77,3.94,3.63,1.08-.06,2.16-.37,3.39-.59,.59,1.94,1.21,4,1.86,6.13-1.2,.6-2.41,.89-3.63,1.14-1.96,.4-3.93,.47-5.92,.15-3.81-.62-6.5-3.26-7.24-7.28-.25-1.34-.3-2.73-.32-4.1-.04-3.59-.01-7.18-.01-10.77,0-.41,0-.83,0-1.3-.35-.04-.6-.1-.86-.1-1.37-.02-2.75-.04-4.12-.03-.33,0-.67,.11-1,.2-2.01,.58-4.02,1.16-6.05,1.75-.14-.15-.25-.25-.33-.37-1.86-2.75-4.52-3.48-7.62-2.93-.75,.13-1.51,.57-2.11,1.06-1.11,.9-1.01,2.3,.18,3.1,.56,.38,1.22,.63,1.87,.83,2.41,.72,4.86,1.33,7.25,2.12,1.62,.53,3.22,1.19,4.74,1.97,2.72,1.42,4.03,3.58,3.66,7.6-.23,2.5-1.54,4.43-3.48,5.96-2.04,1.6-4.4,2.45-6.94,2.73-2.4,.27-4.8,.19-7.16-.43-3.31-.87-6.09-2.6-8.27-5.24-.96-1.16-1.49-2.23-1.8-3.57Z"/>
    <path d="M1235.55,433.26v-16.42h7.87c0,14.46,0,28.87,0,43.28-.79,.23-5.93,.3-7.85,.1v-3.36c-.38,.32-.59,.46-.75,.64-2.71,2.89-6.13,3.84-9.97,3.63-7.91-.43-13.01-7.11-13.71-13.41-.4-3.65-.06-7.18,1.67-10.46,3.54-6.7,10.34-9.21,17.01-7.47,1.85,.48,3.43,1.46,4.78,2.81,.24,.24,.44,.52,.66,.77,.1-.04,.21-.08,.31-.11Zm.24,11.72c-.02-.22-.03-.72-.1-1.21-.47-3.36-2.29-5.75-5.46-6.89-3.21-1.15-6.27-.69-8.85,1.69-2.12,1.96-2.78,4.5-2.63,7.29,.3,5.84,5.4,9.45,11.01,7.81,3.59-1.05,5.96-4.36,6.03-8.69Z"/>
    <path d="M1401.34,461.14h-7.8v-1.28c0-4.81,.02-9.62-.01-14.43,0-.99-.08-1.99-.29-2.95-.51-2.36-1.75-4.18-4.25-4.73-2.61-.58-5.03-.16-6.92,1.92-1.6,1.76-2.19,3.9-2.2,6.22-.02,4.62,0,9.24,0,13.86v1.23c-.85,.26-6.44,.32-7.83,.09v-30h7.79v3.53c.39-.36,.62-.53,.81-.73,2.58-2.73,5.78-3.88,9.49-3.65,1.02,.07,2.06,.16,3.06,.4,3.17,.76,5.41,2.72,6.81,5.63,.94,1.96,1.4,4.04,1.41,6.2,.04,5.99,.02,11.99,.02,17.98,0,.22-.04,.44-.07,.72Z"/>
    <path d="M1455.51,452.65c2.47-.71,4.76-1.38,7.08-2.05,.14,.26,.23,.43,.31,.59,1.24,2.49,3.32,3.83,6,4.26,1.28,.21,2.61,.27,3.85-.19,.7-.26,1.41-.62,1.97-1.11,1.1-.97,1.07-2.49-.09-3.38-.71-.54-1.57-.95-2.43-1.22-2.58-.82-5.19-1.56-7.78-2.32-1.51-.45-2.94-1.04-4.25-1.94-3.81-2.62-3.97-7.76-1.48-10.7,2.04-2.41,4.69-3.76,7.76-4.24,3.03-.47,6.02-.23,8.9,.87,2.79,1.07,5.09,2.76,6.61,5.39,.19,.33,.34,.68,.58,1.18-2.35,.69-4.63,1.36-6.9,2.02-.16-.17-.28-.27-.36-.39-1.83-2.71-4.46-3.41-7.51-2.94-.62,.1-1.25,.39-1.78,.73-1.68,1.1-1.55,2.85,.25,3.77,.44,.22,.92,.38,1.39,.51,2.42,.7,4.84,1.39,7.26,2.09,1.69,.49,3.3,1.16,4.84,2.03,2.81,1.58,3.76,4.08,3.57,7.13-.16,2.5-1.29,4.52-3.2,6.11-1.96,1.64-4.23,2.58-6.74,2.92-3.91,.53-7.7,.19-11.23-1.72-2.6-1.41-4.78-3.29-6.09-6.02-.19-.4-.33-.83-.55-1.39Z"/>
    <path d="M1434.54,452.17c-.4,1.7-1.15,3.05-2.16,4.26-2.78,3.34-6.34,5.14-10.68,5.51-2.3,.2-4.56,.15-6.8-.48-5.89-1.66-10.39-7.05-11.03-13.15-.23-2.19-.16-4.35,.37-6.48,1.62-6.51,7.27-11.22,14-11.56,1.7-.09,3.45-.02,5.12,.27,4.2,.73,7.43,3.06,9.78,6.57,.56,.84,.91,1.82,1.43,2.89-2.53,.84-4.94,1.45-7.34,2.15-.35-.64-.61-1.29-1.02-1.83-1.9-2.52-4.5-3.43-7.56-3.07-2.76,.32-4.79,1.83-5.97,4.28-1.73,3.58-1.52,7.11,.88,10.37,3.07,4.18,9.24,3.84,12.2,.65,.61-.66,1.04-1.48,1.63-2.36,2.26,.62,4.63,1.28,7.13,1.97Z"/>
    <path d="M1454.45,453.99c.61,2.05,1.22,4.08,1.84,6.15-1.21,.63-2.43,.91-3.66,1.16-1.96,.4-3.93,.47-5.91,.14-3.88-.64-6.59-3.41-7.27-7.52-.19-1.12-.25-2.28-.26-3.42-.03-3.74-.01-7.48-.01-11.22,0-.41,0-.83,0-1.35h-4.82c-.26-.9-.31-5.4-.09-6.94h4.89c0-1.65,.02-3.24,.02-4.82,0-1.6,0-3.2,0-4.78,.89-.25,6.47-.3,7.91-.07,.15,3.16-.01,6.34,.09,9.65h8.67v6.92h-8.64c-.03,.49-.06,.86-.06,1.23,0,3.85-.01,7.71,0,11.56,0,2.94,1.25,4.14,4.16,3.93,1.01-.07,2-.38,3.14-.61Z"/>
    <path d="M1367.11,461.15h-7.67c-.24-.8-.34-27.83-.12-29.93,.82-.23,6.5-.27,7.79-.04v29.97Z"/>
    <path d="M1367.99,422.13c.01,2.75-2.03,4.69-4.93,4.69-2.36,0-4.42-2.13-4.46-4.61-.03-2.54,2.04-4.57,4.67-4.59,2.69-.02,4.7,1.9,4.71,4.51Z"/>
  </g>
  <text class="cls-1" transform="translate(58.35 236.88)"><tspan x="0" y="0">Ctrl</tspan></text>
  <rect x="72.7" y="266.08" width="1411.54" height="136.54"/>
  <text class="cls-2" transform="translate(102.68 360.33)"><tspan x="0" y="0">not another design class</tspan></text>
  <text class="cls-3" transform="translate(801.62 460.34)"><tspan x="0" y="0">Powered By:</tspan></text>
  <polygon points="827.96 142.45 787.31 142.45 787.31 101.8 758.72 101.8 758.72 142.45 718.07 142.45 718.07 171.04 758.72 171.04 758.72 211.69 787.31 211.69 787.31 171.04 827.96 171.04 827.96 142.45"/>
  <rect x="882.22" y="46.86" width="242.08" height="203.61"/>
  <g>
    <path class="cls-7" d="M1114.76,177.66c0,24.21-4.43,40.31-13.29,48.29-8.86,7.99-26.36,11.97-52.5,11.97l-40.79,.79-33.16-.53c-35.26,0-57.94-4.61-68.03-13.82-10.09-9.21-15.13-23.55-15.13-43.03l-1.58-36.84c0-28.77,4.21-49.87,12.63-63.29,8.42-13.42,25.61-20.13,51.58-20.13l50-1.32c14.56,0,26.58,.13,36.05,.39,9.48,.26,20.96,1.1,34.47,2.5,13.51,1.41,23.16,7.33,28.95,17.76,5.79,10.44,8.68,24.7,8.68,42.76h-51.84c0-7.96-1.97-13.29-5.92-15.97-3.95-2.68-10.22-4.03-18.82-4.03l-15-.26h-14.74l-27.11,.26c-16.14,0-26.01,2.97-29.61,8.9-3.6,5.93-5.4,18.23-5.4,36.89s2.11,31.67,6.32,37.42c4.21,5.76,15.44,8.63,33.68,8.63l20.79,.52,27.37-.26c10.7,0,18.33-1.48,22.9-4.43,4.56-2.95,6.84-9.9,6.84-20.84h52.37l.26,7.63Z"/>
    <path d="M1232.45,111.35c23.51,0,41.05,3.86,52.63,11.58,11.58,7.72,17.37,22.81,17.37,45.26v68.69h-45.53v-61.32c0-12.28-1.62-20.4-4.87-24.34-3.25-3.95-12.85-5.92-28.82-5.92h-2.89c-14.39,0-24.61,1.93-30.66,5.79-6.05,3.86-9.08,12.2-9.08,25v60.79h-45.53V61.34h45.53v73.69c4.56-10.17,10.92-16.67,19.08-19.47,8.16-2.8,19.08-4.21,32.76-4.21Z"/>
    <path d="M1314.5,94.5V61.34h45.53v33.16h-45.53Zm0,142.37V113.98h45.53v122.9h-45.53Z"/>
    <path d="M1376.61,236.88V61.34h45.53V236.88h-45.53Z"/>
    <path d="M1438.71,236.88V61.34h45.53V236.88h-45.53Z"/>
  </g>
  <g>
    <circle class="cls-4" cx="65.76" cy="229.47" r="90.19"/>
    <g>
      <path class="cls-5" d="M46.14,160.87C8.32,172.01-13.39,211.84-2.25,249.67c11.14,37.82,50.97,59.53,88.8,48.39,37.82-11.14,59.53-50.97,48.39-88.8-11.14-37.82-50.97-59.53-88.8-48.39Zm32.92,36.67c3.49-1.03,8.14,4.31,10.38,11.92,2.24,7.61,1.23,14.62-2.26,15.65-3.49,1.03-8.14-4.31-10.38-11.92-2.24-7.61-1.23-14.62,2.27-15.65Zm-40.7,11.99c3.49-1.03,8.14,4.31,10.38,11.92,2.24,7.61,1.23,14.62-2.26,15.65-3.49,1.03-8.14-4.31-10.38-11.92-2.24-7.61-1.23-14.62,2.27-15.65Zm40.59,63.96c-22.59,6.65-46.39-6.31-53.04-28.91l4.49-1.32c5.92,20.12,27.11,31.66,47.23,25.74,20.12-5.92,31.66-27.11,25.74-47.23l4.49-1.32c6.65,22.59-6.31,46.39-28.91,53.04Z"/>
      <path d="M44.6,155.62C3.88,167.61-19.49,210.5-7.5,251.22c11.99,40.72,54.88,64.09,95.6,52.1,40.72-11.99,64.09-54.88,52.1-95.6-11.99-40.72-54.88-64.09-95.6-52.1Zm41.95,142.44c-37.82,11.14-77.66-10.57-88.8-48.39-11.14-37.82,10.57-77.66,48.39-88.8,37.82-11.14,77.66,10.57,88.8,48.39,11.14,37.82-10.57,77.66-48.39,88.8Z"/>
      <path d="M46.48,237.1c3.49-1.03,4.51-8.03,2.26-15.65-2.24-7.61-6.89-12.95-10.38-11.92-3.49,1.03-4.51,8.03-2.27,15.65,2.24,7.61,6.89,12.95,10.38,11.92Z"/>
      <path d="M87.18,225.11c3.49-1.03,4.51-8.03,2.26-15.65-2.24-7.61-6.89-12.95-10.38-11.92-3.49,1.03-4.51,8.03-2.27,15.65,2.24,7.61,6.89,12.95,10.38,11.92Z"/>
      <path d="M77.63,269c-20.12,5.92-41.3-5.62-47.23-25.74l-4.49,1.32c6.65,22.59,30.45,35.56,53.04,28.91,22.59-6.65,35.56-30.45,28.91-53.04l-4.49,1.32c5.92,20.12-5.62,41.3-25.74,47.23Z"/>
    </g>
  </g>
  <rect class="cls-9" x="-10.56" y="499.37" width="526.13" height="42.52"/>
  <rect class="cls-8" x="514.95" y="499.7" width="526.13" height="42.52"/>
  <rect class="cls-6" x="1041.08" y="499.7" width="526.13" height="42.52"/>
</svg>