<?xml version="1.0" encoding="UTF-8"?>
<svg id="Layer_1" data-name="Layer 1" xmlns="http://www.w3.org/2000/svg" viewBox="0 0 1500 750.68">
  <defs>
    <style>
      .cls-1 {
        font-family: Helvetica-Light, Helvetica;
        font-size: 73.27px;
        font-weight: 300;
        letter-spacing: 1em;
      }
    </style>
  </defs>
  <g>
    <path d="M660.33,480.12c21.64,0,46.15-8.29,60.58-42.91v-.36h-23.44l-51.56-121.52c-12.98-30.29-20.55-49.04-36.78-57.69v-1.08h61.3c-3.25,4.33-4.69,9.01-4.69,15.14,0,7.93,2.88,18.03,8.29,30.65l51.92,122.96,47.24-110.7c6.49-15.15,9.74-27.77,9.74-39.66,0-6.49-1.08-12.62-3.25-18.39h38.58c-17.67,14.78-30.29,32.45-39.66,54.45l-53.73,126.21c-16.95,40.03-36.78,77.89-91.95,77.89v-39.3c6.85,2.16,16.95,4.33,27.4,4.33Z"/>
    <path d="M828.14,271.18c45.84-35.62,105.67-20.91,135.09,16.96,34.73,44.71,21.04,104.66-17.4,134.52-45.28,35.17-104.66,21.04-134.52-17.4-34.95-44.99-21.32-104.44,16.83-134.08Zm-2.48,142.57c19.47,25.06,54.95,20.78,82.29-.46,36.16-28.1,69.75-97.11,41.66-133.28-19.69-25.34-55.74-20.62-83.36,.84-34.17,26.55-70.01,95.03-40.59,132.9Z"/>
    <path d="M1128.25,366.54v-29.57c0-41.11-11.54-75.36-44.71-75.36-29.57,0-53.37,29.57-53.37,87.98v17.67c0,30.29,1.8,49.4,15.14,69.59h-60.58c13.34-20.19,15.15-39.3,15.15-69.59v-31.73c0-30.29-.72-49.4-15.87-67.43l46.15-17.31v60.94c9.01-42.55,33.89-60.94,62.74-60.94,46.88,0,65.63,40.39,65.63,86.18v29.57c0,30.29,1.8,50.12,15.14,70.31h-60.58c13.34-20.19,15.15-40.03,15.15-70.31Z"/>
    <path d="M1171.6,346.34c0-56.25,31.73-95.55,82.57-95.55,27.4,0,58.78,16.22,70.67,56.97v-44.35c0-30.29-.72-49.4-15.87-67.43l46.15-17.31v188.59c0,30.29,1.8,49.4,15.15,69.59h-45.43v-51.92c-12.26,41.11-43.63,57.69-71.03,57.69-50.48,0-82.21-39.3-82.21-96.27Zm93.03,84.38c27.4,0,61.66-18.03,61.66-84.74,0-62.74-33.89-84.38-61.66-84.38-36.78,0-58.05,33.9-58.05,85.1,0,48.32,20.55,84.02,58.05,84.02Z"/>
  </g>
  <text class="cls-1" transform="translate(424.18 614.98)"><tspan x="0" y="0">BEAUTY</tspan></text>
  <path d="M144.84,372.22v-123.87c0-30.25-1.8-49.33-15.12-69.5h91.46c54.37,0,80.3,25.93,80.3,60.86s-26.29,52.21-53.65,57.25c32.41,2.88,71.3,23.41,71.3,64.45,0,47.89-32.77,69.5-95.42,69.5h-93.98c13.32-11.88,15.12-28.45,15.12-58.69Zm86.42-77.42c29.17,0,41.05-21.25,41.05-54.37,0-23.77-10.8-58.69-50.05-58.69-30.61,0-46.09,20.88-46.09,53.29,0,37.45,23.77,59.78,55.09,59.78Zm-14.4,132.51c55.81,0,69.86-33.13,69.86-66.98,0-29.89-12.6-57.61-55.81-61.22-23.41-1.44-47.53-14.04-54.73-41.05v169.24h40.69Z"/>
  <path d="M286.71,343.05c0-55.81,46.09-96.14,96.86-96.14,46.81,0,87.86,30.61,87.86,68.41s-33.85,64.1-82.82,64.1c-32.41,0-63.38-19.09-68.78-50.77,0,3.24,.36,6.48,.72,9.72,2.52,44.65,33.85,88.94,79.58,88.94,30.61,0,57.61-20.16,70.22-53.65h1.8c-13.32,41.41-47.89,64.81-89.66,64.81-56.89,0-95.78-47.17-95.78-95.42Zm96.5,29.89c39.97,0,54.73-31.69,54.73-58.33,0-41.05-28.09-64.09-56.53-64.09-36.37,0-61.21,23.05-61.21,60.49,0,39.61,30.61,61.93,63.01,61.93Z"/>
  <path d="M437.95,343.05c0-55.81,46.09-96.14,96.86-96.14,46.81,0,87.86,30.61,87.86,68.41s-33.85,64.1-82.82,64.1c-32.41,0-63.38-19.09-68.78-50.77,0,3.24,.36,6.48,.72,9.72,2.52,44.65,33.85,88.94,79.58,88.94,30.61,0,57.61-20.16,70.22-53.65h1.8c-13.32,41.41-47.89,64.81-89.66,64.81-56.89,0-95.78-47.17-95.78-95.42Zm96.5,29.89c39.97,0,54.73-31.69,54.73-58.33,0-41.05-28.09-64.09-56.53-64.09-36.37,0-61.21,23.05-61.21,60.49,0,39.61,30.61,61.93,63.01,61.93Z"/>
  <g id="_5HiHow" data-name="5HiHow">
    <path d="M538.97,141.96c-44.04,7.68-69.17,33.03-76.22,76.77-1.99-20.2-9.78-37.53-23.92-51.82-14.18-14.32-31.45-22.3-51.95-24.49,43.75-7.54,69.06-32.76,76.29-76.7,2.08,20.21,9.87,37.48,23.95,51.71,14.15,14.3,31.47,22.2,51.85,24.52Z"/>
  </g>
  <g id="_5HiHow-2" data-name="5HiHow">
    <path d="M369.2,168.5c-26.69,4.65-41.92,20.02-46.19,46.52-1.21-12.24-5.92-22.74-14.5-31.4-8.59-8.68-19.06-13.51-31.48-14.84,26.51-4.57,41.85-19.85,46.23-46.48,1.26,12.25,5.98,22.71,14.51,31.33,8.58,8.67,19.07,13.45,31.42,14.86Z"/>
  </g>
  <g id="_5HiHow-3" data-name="5HiHow">
    <path d="M399.32,79.17c-17.45,3.04-27.4,13.08-30.19,30.41-.79-8-3.87-14.87-9.48-20.52-5.62-5.67-12.46-8.83-20.57-9.7,17.33-2.99,27.35-12.98,30.22-30.38,.82,8.01,3.91,14.85,9.49,20.48,5.61,5.67,12.47,8.79,20.54,9.71Z"/>
  </g>
</svg>