<?xml version="1.0" encoding="UTF-8"?>
<svg id="Layer_1" data-name="Layer 1" xmlns="http://www.w3.org/2000/svg" viewBox="0 0 1080 1080">
  <defs>
    <style>
      .cls-1 {
        fill: #333;
      }

      .cls-2 {
        fill: #8e8e8e;
      }

      .cls-3 {
        fill: #dbdbdb;
      }
    </style>
  </defs>
  <path class="cls-3" d="M691.62,976.12c-14.13,0-27.96-2.5-41.12-7.43-43.78-16.4-71.99-56.89-73.61-105.66-.47-13.82,1.19-27.74,4.92-41.49-41.41-5.61-107.01-24.18-158.65-83.51l-10.78-12.39c-6.03-6.92-10.54-14.81-13.41-23.24-2.82-.82-5.58-1.85-8.25-3.08-11.63,4.02-23.87,6.06-36.55,6.06h-31.12c-8.49,0-16.9-1.73-24.68-5.02-10.67,3.33-21.82,5.02-33.3,5.02h-31.3c-30.75,0-57.81-19.64-67.32-48.88l-52.74-161.96c-5.01-15.45-7.54-30.83-7.54-45.76,0-23.5,7.56-46.29,21.92-66.23-16.76-34.98-28.83-84.44-11.78-143.92,.97-4.05,3.89-14.83,10.18-28.6,.96-2.18,1.86-4.13,2.75-5.95l3.52-7.23,.81-.78c11.89-21.21,32.67-48.65,66.98-68.29l.93-1.04,7.9-3.92c13.3-6.59,27.53-11.53,42.28-14.69l.53-.11c13.02-2.75,26.61-4.14,40.41-4.14,7.2,0,14.6,.39,22.07,1.17,3.4-.78,6.89-1.17,10.44-1.17h67.18c17.25,0,33.74,3.21,48.48,9.36,14.74-6.15,31.23-9.36,48.48-9.36h67.18c9.86,0,19.2,3.07,26.93,8.49,14.4-3.11,29.49-4.68,45.08-4.68,20.68,0,40.45,2.76,58.91,8.21,4.17-1.2,8.51-1.81,12.95-1.81h132.4c41.58,0,78.04,16.93,105.46,48.97,24.63,28.78,37.13,64.43,36.17,103.1-.95,38.23-14.28,72.08-39.63,100.59-15.93,17.92-35.59,31.32-57.6,39.38v198.82c0,7.76-.71,15.36-2.11,22.7,8.34,15.84,12.7,33.99,12.7,53.21v39.68h16.3c25.85,0,46.89,21.03,46.89,46.89v61.5c0,71.16-51.96,108.39-103.29,108.39h-67.95c-8.22,9.2-17.92,16.98-28.97,23.23-18.03,10.19-38.43,15.58-59,15.58Z"/>
  <path class="cls-1" d="M663.6,938.89c-10.82,0-21.4-1.91-31.46-5.68-33.65-12.61-54.5-42.82-55.77-80.81-.45-13.31,1.57-26.81,6.01-40.12l2.23-6.7c.45-1.34,.73-2.65,.85-3.9,.55-5.83,.77-10.85,.8-15.06h-.03c-24.37,0-108.67-5.51-170.35-76.38l-10.79-12.39c-7.35-8.44-10.95-19.17-10.19-30.3h-7.1c-8.72,0-16.66-3.43-22.54-9-11.98,6.31-25.22,9.59-39.14,9.59h-31.12c-8.27,0-16.15-2.87-22.42-7.84-10.99,5.16-23.05,7.84-35.56,7.84h-31.3c-18.79,0-35.33-12.01-41.15-29.88l-52.75-161.96c-4.11-12.67-6.18-25.19-6.18-37.23,0-18.96,6.65-37.44,19.23-53.47,2.55-3.25,5.35-6.27,8.38-9.05-17.82-29.75-36.24-79.02-18.36-140.67,.45-1.98,2.79-11.48,8.66-24.31,.76-1.74,1.55-3.46,2.37-5.14l1.39-2.86,.34-.33c10.54-19.93,29.58-45.9,62.25-63.36l.49-.56,3.14-1.56c11.25-5.57,23.3-9.76,35.82-12.44l.47-.1c11.12-2.35,22.8-3.54,34.7-3.54,8,0,16.27,.56,24.66,1.66,2.4-1.07,5.06-1.66,7.85-1.66h67.18c18.23,0,34.74,4.32,48.48,12.58,13.74-8.27,30.25-12.58,48.48-12.58h67.18c8,0,14.89,4.88,17.83,11.82,16.8-5.33,34.93-8.02,54.17-8.02,21.66,0,41.91,3.41,60.42,10.15,3.21-2.35,7.16-3.75,11.43-3.75h132.4c33.29,0,62.52,13.6,84.54,39.34,20.13,23.53,30.36,52.76,29.57,84.52-.78,31.55-11.78,59.47-32.69,82.99-16.49,18.55-37.44,30.86-61.23,36.12-.74,4.71-1.85,9.3-3.32,13.72v206.65c0,9.56-1.36,18.66-4.05,27.17,9.61,13.63,14.64,30.27,14.64,48.74v67.2h43.83c10.67,0,19.36,8.68,19.36,19.36v61.5c0,55.56-39.27,80.86-75.76,80.86h-73.96c-2.42,0-4.83-.08-7.22-.24-7.4,11.07-17.35,20.29-29.28,27.03-13.91,7.86-29.63,12.02-45.46,12.02Z"/>
  <path class="cls-1" d="M803.48,595.25v-209.52c0-.15,.03-.3,.08-.44,2.84-7.53,4.36-15.92,4.36-25.03v-.97c25.53-2.33,47.73-13.45,64.66-32.51,18-20.25,27.46-44.29,28.14-71.45,.68-27.24-8.05-52.26-25.24-72.35-18.49-21.61-42.98-33.03-70.84-33.03h-132.4c-.73,0-1.33,.59-1.33,1.32v6.35c0,.99-1.03,1.61-1.91,1.17-20.18-10.12-43.12-15.25-68.62-15.25s-48.54,5.15-68.76,15.31c-.88,.44-1.92-.18-1.92-1.17v-16.62c0-.73-.59-1.32-1.33-1.32h-67.18c-19.38,0-35.75,5.85-47.63,16.12-.49,.43-1.21,.43-1.7,0-11.88-10.28-28.25-16.12-47.63-16.12h-67.18c-.73,0-1.33,.59-1.33,1.32,0,.82-.74,1.43-1.55,1.29-10.09-1.73-20.03-2.62-29.63-2.62-11.28,0-21.61,1.17-31.01,3.16h0s-.02,0-.03,0c-12.18,2.57-22.81,6.51-31.94,11.04l-.38,.42c-31.55,15.9-49.33,40.9-58.85,59.8l-.18,.18c-.74,1.51-1.44,3.07-2.13,4.63-5.65,12.32-7.55,21.04-7.55,21.04h.02c-19.15,64.77,6,114.35,24.59,139.9,.46,.63,.25,1.5-.44,1.88-7.94,4.44-13.62,9.91-17.57,14.94-10.06,12.82-15.38,27.46-15.38,42.33,0,10.15,1.78,20.78,5.3,31.65l52.75,161.96c3.38,10.39,13.07,17.42,24,17.42h31.3c14.45,0,27.67-4.42,38.82-12.65,.68-.5,1.63-.27,1.99,.49l.8,1.71c2.96,6.37,9.35,10.45,16.37,10.45h31.12c16.91,0,32.31-6.13,44.76-17.34,.84-.76,2.19-.13,2.19,1v1.03c0,8.14,6.59,14.73,14.73,14.73h33.03c1.25,0,1.8,1.57,.83,2.35-10.47,8.49-11.82,23.97-2.97,34.14l10.79,12.39c56.68,65.12,134.3,70.18,156.75,70.18,3.17,0,5.22-.1,5.95-.14l.73-.05c3.08-.24,6.01-.36,8.7-.36,.51,0,1,0,1.46,.01,1.19,7.11,1.85,19.16,.33,35.32-.25,2.62-.82,5.27-1.69,7.91l-2.23,6.71c-3.76,11.27-5.47,22.65-5.1,33.81,1.02,30.44,17.49,54.56,44.07,64.52,8.03,3.01,16.48,4.53,25.13,4.53,12.73,0,25.38-3.35,36.59-9.69,12.61-7.13,22.09-17.41,27.98-29.85,.25-.53,.82-.83,1.4-.72,5.06,.94,10.4,1.45,16,1.45h73.96c28.73,0,57.73-19.43,57.73-62.83v-61.5c0-.73-.59-1.32-1.33-1.32h-60.54c-.73,0-1.33-.59-1.33-1.32v-83.91c0-18.2-6.04-33.6-16.67-44.84-.37-.39-.46-.95-.23-1.44,4.09-8.66,6.31-18.63,6.31-29.63Z"/>
  <path class="cls-2" d="M490.03,179.42v171.21c0,16.89-9.61,25.33-28.83,25.33s-28.83-8.44-28.83-25.33v-50.08h-39.31v-.42c0,16.89-9.61,25.33-28.83,25.33h-28.83V179.42h28.83c19.22,0,28.83,8.44,28.83,25.33v49.21h39.31v-49.21c0-16.89,9.61-25.33,28.83-25.33h28.83Z"/>
  <path class="cls-2" d="M704.41,285.42c0,30.38-9.85,54.96-29.56,73.74-19.7,18.78-44.65,28.17-74.83,28.17s-55.03-9.39-74.54-28.17c-19.51-18.78-29.26-43.36-29.26-73.74s9.7-55.01,29.12-73.89c19.41-18.88,44.43-28.32,75.05-28.32s55.62,9.44,74.98,28.32c19.36,18.88,29.05,43.51,29.05,73.89Zm-69.01-36.54c-8.73-9.61-20.38-14.41-34.94-14.41s-26.26,4.83-35.09,14.49c-8.83,9.66-13.25,21.84-13.25,36.54s4.42,26.81,13.25,36.32c8.83,9.51,20.5,14.27,35.01,14.27s26.16-4.8,34.94-14.41c8.78-9.61,13.18-21.74,13.18-36.4s-4.37-26.79-13.1-36.4Z"/>
  <path class="cls-2" d="M768.25,320.07v40.18c0,16.89-9.61,25.33-28.83,25.33h-28.83V189.63h94.05c16.21,0,29.77,6.38,40.69,19.15,10.92,12.76,16.16,27.95,15.72,45.57-.44,17.62-6.48,32.98-18.13,46.08-11.65,13.1-26.74,19.65-45.28,19.65h-29.41Zm0-91.43v44.84h16.6c16.31,0,24.46-7.47,24.46-22.42s-8.15-22.42-24.46-22.42h-16.6Z"/>
  <g>
    <path class="cls-2" d="M308.82,610.44l-9.61-20.67-17.47-38.14-17.47,38.14c-6.31,13.78-15.38,20.67-27.23,20.67h-20.82l-49.5-151.99c-2.23-6.89-3.35-13.34-3.35-19.36s2.3-11.96,6.92-17.84c4.61-5.87,12.81-8.76,24.6-8.66,11.79,.1,19.87,6.84,24.24,20.24l21.84,67.55,13.69-29.7c6.31-13.59,15.43-20.38,27.37-20.38s20.96,6.79,27.08,20.38l13.39,29.7,9.5-36.89c4.37-13.39,12.4-20.14,24.1-20.24,11.69-.1,19.9,2.82,24.6,8.74,4.71,5.92,7.06,11.89,7.06,17.91s-1.12,12.42-3.35,19.22l-30.18,100.66c-6.79,13.78-16.16,20.67-28.1,20.67h-17.33Z"/>
    <path class="cls-2" d="M470.42,584.52c0,16.89-9.61,25.33-28.83,25.33h-28.83v-171.21c0-16.89,9.61-25.33,28.83-25.33h28.83v171.21Z"/>
    <path class="cls-2" d="M592.86,459.61v125.21c0,16.89-9.61,25.33-28.83,25.33h-28.83v-150.54h-29.12c-15.53,0-23.29-7.72-23.29-23.15v-23.15h139.47c15.53,0,23.29,7.72,23.29,23.15s-7.77,23.15-23.29,23.15h-29.41Z"/>
    <path class="cls-2" d="M763.81,424.04v171.21c0,16.89-9.61,25.33-28.83,25.33s-28.83-8.44-28.83-25.33v-50.08h-39.31v50.08c0,16.89-9.61,25.33-28.83,25.33h-28.83v-147.85h28.83c19.22,0,28.83,8.44,28.83,25.33v.51h39.31v-49.21c0-16.89,9.61-25.33,28.83-25.33h28.83Z"/>
  </g>
  <path class="cls-2" d="M819.53,842.37h-73.96c-19.22,0-28.83-8.44-28.83-25.33v-171.21h28.83c19.22,0,28.83,8.44,28.83,25.33v124.91h63.19v23.15c0,15.43-6.02,23.15-18.05,23.15Z"/>
  <path class="cls-2" d="M466.03,667.02l20.01-16.21c3.29-2.66,8.07-2.31,10.92,.82,10.09,11.05,36.35,34.14,80.51,35.43,0,0,53.56,4.12,87.9-35.34,2.78-3.2,7.57-3.68,10.92-1.08l22.4,17.38c2.52,1.95,3.64,5.2,2.84,8.29-4.86,18.82-21.17,85.22-17.31,114.15,0,0-.91,20.38,6.35,36.85,2.71,6.15,4.54,12.68,4.85,19.39,.48,10.12-1.96,22.73-14.74,29.95-8.62,4.87-19,6.02-28.27,2.54-8.5-3.18-17.74-10.78-18.34-28.69-.23-6.77,.94-13.51,3.08-19.93l2.24-6.71c1.81-5.43,3.02-11.04,3.55-16.74,1.98-21.03,3.89-70.78-21.41-76.55,0,0-9.6-3.39-31.63-1.69,0,0-71.77,4.19-124.49-49.99-3.3-3.39-3.04-8.86,.63-11.84Z"/>
  <path class="cls-2" d="M373.43,343.16c-4.69-5.21-9.76-7.73-15.19-7.58h0c-2,.06-3.97,.54-5.79,1.36-11.48,5.17-21.7,8.67-30.72,10.99h0c-47.68,13.13-72.98-4.01-86.06-21.85-6.28-7.88-10.52-17.2-12.68-27.06-.3-1.24-.43-1.94-.43-1.94-6.28-33.06-1.08-50.26,6.79-59.15,1.6-2.11,3.64-3.84,6.24-5.21,9.06-5.45,18.63-3.85,18.63-3.85,5.86-.17,14.73,1.65,26.62,5.47,11.89,3.82,20.55,5.65,25.98,5.49,5.43-.16,10.34-2.97,14.72-8.44,4.38-5.47,6.47-11.63,6.27-18.48-.2-6.85-5.69-14.42-16.48-22.72-2.46-1.89-5.43-3.55-8.89-4.96-2.46-1.01-5.03-1.76-7.62-2.33-48.12-10.61-78.13,5.26-93.73,18.43-2.12,2.15-4.34,4.47-6.75,6.94-6.71,6.91-12.12,14.54-16.26,22.87v-.02c-.03,.05-.05,.1-.07,.15-1.79,3.62-3.33,7.39-4.64,11.28-19.52,53.32,.62,93.89,16.95,115.62,4.05,5.73,9.13,11.61,15.5,17.11,.51,.45,.79,.68,.79,.68,16.11,13.63,40.22,24.81,76.1,25.45,2.13,.1,4.22,.14,6.25,.08,2-.06,4.02-.15,6.07-.26,6.65-.31,13.67-.96,21.06-1.99,21.48-2.85,41.57-8.09,49.03-14.35,10.62-8.91,15.83-16.8,15.63-23.65-.2-6.85-2.64-12.88-7.33-18.09Z"/>
  <path class="cls-3" d="M684.71,829.56s14.65,29.46-9.05,45.42c0,0,15.8-13.82,9.05-45.42Z"/>
  <path class="cls-3" d="M851.58,251.06s6.51,32.25-20.52,41.52c0,0,18.84-9.26,20.52-41.52Z"/>
  <path class="cls-3" d="M458.61,559.63s14.65,29.46-9.05,45.42c0,0,15.8-13.82,9.05-45.42Z"/>
  <path class="cls-3" d="M273.07,467.67s12.76-18.39,27.52,2.29c0,0-11.62-13.33-27.52-2.29Z"/>
  <path class="cls-3" d="M677.43,320.66s.28,32.9-28.01,36.88c0,0,20.25-5.52,28.01-36.88Z"/>
  <path class="cls-3" d="M512.23,256.27s-.28-32.9,28.01-36.88c0,0-20.25,5.52-28.01,36.88Z"/>
</svg>