<?xml version="1.0" encoding="UTF-8"?>
<svg id="Layer_1" data-name="Layer 1" xmlns="http://www.w3.org/2000/svg" viewBox="0 0 1700 715.98">
  <g>
    <path d="M703.81,470.22c-3.56-.83-6.84-1.54-10.1-2.36-4.43-1.12-8.63-2.84-12.43-5.4-5.09-3.45-8.92-7.92-10.61-13.93-3.38-12.08,.95-20.48,9.59-25.68,4.18-2.51,8.7-4.09,13.56-4.75,1.83-.25,2.2-1.65,.88-2.97-2-2-4.19-3.84-6.1-5.93-15.43-16.92-19.91-36.58-13.83-58.49,3.56-12.81,11.71-22.53,22.61-29.98,10.5-7.18,22.24-11.15,34.71-13.21,7.6-1.26,15.24-1.63,22.92-1.48,2.84,.05,5.69,.01,8.52-.04,11.06-.22,18.77-5.7,23.65-15.35,3.25-6.42,4.55-13.4,5.21-20.5,.34-3.67,.46-7.37,.85-11.04,.32-3.11,1.03-3.74,4.42-3.77,10.23-.06,20.45-.07,30.68,0,3.94,.02,4.75,.81,4.45,4.37-.77,9.63-1.95,19.17-5.62,28.25-5.21,12.89-13.75,22.02-27.62,25.44-1.27,.31-2.48,.91-4.04,1.49,1.97,2.77,4.72,3.81,6.92,5.49,11.92,9.08,20.6,20.38,23.35,35.41,5.37,29.42-5.45,52.95-29,67.22-15.78,9.57-33.17,12.94-51.49,11.43-4.52-.37-8.98-1.26-13.47-1.92-5.08-.75-10.16-1.11-15.29-.75-2.28,.16-4.5,.49-6.54,1.65-4.38,2.5-4.84,8.55-.66,11.26,1.87,1.21,4.06,2.04,6.22,2.63,4.39,1.19,8.91,1.75,13.47,1.77,13.06,.06,26.13,.2,39.19,.24,9.42,.02,18.7,1.14,27.86,3.25,4.99,1.14,9.78,2.94,14.32,5.34,13.35,7.07,20.43,18.39,22.37,33.17,1.12,8.57,.47,16.99-1.98,25.27-3.37,11.41-10.44,19.99-20.29,26.44-8.92,5.83-18.79,9.48-29.16,11.37-24.27,4.43-48.56,4.54-72.72-.98-9.49-2.18-18.4-5.81-26.16-11.84-14.12-10.97-19.21-25.48-16.46-42.92,1.27-8.06,5.64-14.1,12.47-18.44,5.83-3.71,12.23-5.9,19-7.13,2.18-.4,4.53-.41,6.39-2.6h-.01Zm47.82,8.27c-5.03,.45-10.99,.71-16.86,1.56-5.88,.85-11.67,2.39-16.76,5.67-11.41,7.37-12.37,23.25-1.93,31.94,3.76,3.12,8.12,5.14,12.79,6.46,12.79,3.61,25.72,3.89,38.67,1.14,6.72-1.43,12.81-4.3,17.87-9.22,7.66-7.44,9.16-23.13-3.42-30.72-2.91-1.75-6.01-3.09-9.29-4.08-6.58-1.99-13.37-2.2-21.06-2.76h0Zm-1.49-79.8c7.7,.01,15.96-1.34,23.44-6.15,15.91-10.21,16.31-33.12,.37-43.64-5.59-3.68-11.72-5.66-18.28-6.44-9.53-1.14-18.76,.09-27.27,4.6-9.85,5.21-15.14,13.34-14.64,24.84,.37,8.62,4.38,15.07,11.26,19.96,7.25,5.15,15.54,6.62,25.13,6.84h-.01Z"/>
    <path d="M1522.69,458.48c-2.7,2.92-3.82,4.16-4.95,5.37-11.78,12.65-26.18,19.82-43.58,20.24-11.12,.27-22.16-.72-32.78-4.32-3.74-1.27-7.45-2.8-10.96-4.62-17.43-9.06-26.16-23.74-27.37-43.12-.45-7.14,.05-14.22,2.28-21.06,3.86-11.84,11.37-20.76,21.97-27.23,8.14-4.96,17.08-7.69,26.35-9.28,15.3-2.63,30.57-2.09,45.67,1.62,7.24,1.78,13.96,4.73,19.89,9.36,.63,.5,1.28,1.05,2.28,.71,1.11-.37,.98-1.28,.98-2.03,0-7.44-1.14-14.68-3.46-21.77-3.28-10.09-10.24-16.17-20.37-18.62-8.97-2.16-18.05-2.38-27.03-.14-8.36,2.08-15.35,6.13-18.23,14.93-.95,2.87-2.58,3.88-5.6,3.83-10.51-.17-21.03-.04-31.55-.1-2.74-.01-3.43-.88-3.05-3.69,3.2-23.04,14.77-39.51,37.25-47.46,6.74-2.39,13.71-3.65,20.79-4.34,16.55-1.63,32.91-.66,48.94,4.04,2.99,.87,5.92,1.98,8.78,3.18,15.27,6.44,25.5,17.59,30.92,33.24,2.71,7.83,4.39,15.87,5,24.11,.4,5.37,.55,10.79,.56,16.17,.05,27.56,.02,55.11,.02,82.68,0,1.42,.04,2.84,0,4.27-.14,4.42-.4,4.74-4.94,4.76-11.09,.05-22.17,.06-33.25,0-3.94-.02-4.49-.6-4.55-4.37-.09-4.76-.02-9.54-.02-16.35v-.03Zm-37.75-57.2c-9.85,0-19.15,2.45-26.1,6.3-14.43,8-16.62,27.83-2.58,38.22,3.69,2.74,7.65,4.91,12.07,6.01,13.21,3.3,25.88,1.68,37.68-5.11,7.07-4.07,12.32-9.88,15.12-17.69,3.91-10.89,1.47-17.19-9.01-22.03-8.58-3.97-17.73-5.74-27.2-5.69h.01Z"/>
    <path d="M1317.2,406.82h-53.67c-1.98,0-3.96,.11-5.93,.22-1.05,.06-1.33,.95-1.53,1.74-.14,.52-.02,1.13,.07,1.69,1.72,10.02,5.6,19,12.68,26.45,5.08,5.35,11.42,8.52,18.5,9.85,9.85,1.84,19.77,1.85,29.51-1.12,8.17-2.5,14.95-6.87,19.07-14.59,1.16-2.16,2.4-3.63,5.13-3.61,10.79,.09,21.59,0,32.37,.06,2.75,.01,3.38,.95,2.87,3.74-3.11,17.14-12.24,30.28-26.6,39.92-9.37,6.28-19.88,9.73-30.88,11.48-15.58,2.49-31.2,2.15-46.49-1.82-29.63-7.69-49.19-26.18-57.55-55.77-6.42-22.74-6.13-45.57,2.41-67.73,11.06-28.64,32.32-45.06,62.57-50.08,13.09-2.16,26.03-1.52,38.83,1.78,27.02,6.98,45.34,23.7,55.09,49.76,5.47,14.62,6.36,29.88,5.79,45.3-.06,1.67-.93,2.59-2.59,2.64-2.28,.06-4.54,.06-6.82,.06h-52.82Zm-20.23-26.39v.02h33.19c1.99,0,3.98,.04,5.96-.09,1.6-.1,2.56-.96,2.44-2.72-1.06-14.61-11.78-28.48-25.67-33.06-6.25-2.05-12.71-2.99-19.28-2.46-10.2,.8-19.43,3.83-26.4,11.91-5.71,6.61-9.03,14.33-10.82,22.78-.55,2.56,.32,3.6,3.15,3.61,12.48,.05,24.97,.02,37.45,.02h-.01Z"/>
    <path d="M935.83,484.21c-14.11-.22-26.49-1.72-38.26-6.33-28.05-10.99-45.37-31.39-51.89-60.67-3.43-15.41-3.4-31.08,.36-46.45,7.18-29.29,25.27-49.24,53.65-59.01,25.93-8.93,52.1-8.07,77.31,2.95,26.7,11.67,42.24,32.58,47.51,61.16,2.99,16.17,2.46,32.35-2.33,48.03-9.54,31.26-31.09,49.9-62.54,57.56-8.32,2.03-16.85,2.34-23.81,2.77h0Zm46.39-87.16c.06-11.04-.92-16.27-3.57-24-5.34-15.59-20.33-30.9-43.47-30.92-22.85,0-37.92,13.69-44.07,31.19-4.06,11.56-4.47,23.36-2.39,35.21,3.99,22.72,20.9,42.1,51.83,39.14,18.16-1.74,30.22-11.72,37.37-28.02,3.35-7.63,4.4-15.79,4.28-22.59h.01Z"/>
    <path d="M1083.48,421.61c.46,3.07,.65,5.32,1.16,7.51,2.24,9.6,8.06,16.34,17.36,19.38,12.86,4.21,25.84,3.57,38.33-1.54,9.02-3.68,12.75-11.78,10.6-20.73-1-4.14-3.46-7.1-6.83-9.39-4.04-2.74-8.57-4.48-13.36-5.29-10.35-1.75-20.73-3.3-31.09-5-8.41-1.38-16.71-3.21-24.6-6.58-5.8-2.48-11.11-5.66-15.58-10.18-6.44-6.53-9.9-14.48-10.95-23.48-.96-8.25-.42-16.46,2-24.45,3.37-11.1,10.24-19.47,20.09-25.48,6.87-4.18,14.36-6.9,22.21-8.32,18.1-3.25,36.18-2.84,54.12,1.33,4.99,1.16,9.77,3.01,14.29,5.4,10.57,5.57,17.77,14,20.91,25.6,1.56,5.72,3.04,11.51,2.38,17.37-1.34,1.87-3.15,1.39-4.75,1.41-9.65,.05-19.31,0-28.96,.04-2.24,0-3.5-.6-4.03-3.16-1.95-9.39-8.51-14.61-17.26-16.91-9.78-2.58-19.71-2.28-29.37,.92-2.38,.78-4.65,2.11-6.73,3.56-8.29,5.74-8.5,19.78,1.01,25.19,4.5,2.56,9.31,4.24,14.34,5.15,7.25,1.31,14.56,2.41,21.86,3.38,8.46,1.12,16.78,2.81,24.94,5.27,2.7,.82,5.35,1.88,7.92,3.05,16.78,7.69,25.86,20.64,26.55,39.24,.25,6.83,.04,13.59-1.8,20.27-2.84,10.28-8.55,18.44-17.19,24.6-5.83,4.16-12.22,7.28-19.06,9.27-20.27,5.9-40.77,6.87-61.45,2.41-5.83-1.26-11.36-3.48-16.68-6.25-15.85-8.21-24.98-21.4-27.16-38.82-2.16-17.36-4.39-14.49,12.24-14.74,7.92-.11,15.86-.02,24.51-.02l.02-.02Z"/>
    <path d="M516.92,413.74v55.34c0,2.26,0,4.54-.04,6.81-.04,1.93-.83,3.25-2.99,3.3-.29,0-.57,.02-.85,.02-11.64,0-23.28,.04-34.92-.02-3.41-.02-3.91-.61-4.03-4.03-.09-2.26-.02-4.54-.02-6.81v-109.84c0-1.7,.02-3.41,0-5.11-.1-6.21-.1-6.25-6-6.3-5.67-.05-11.36-.02-17.03-.05-2.07,0-3.05-1.06-3.04-3.16,.02-9.93,.01-19.87,.02-29.8,0-2.13,1.26-2.99,3.25-2.99,6.53-.01,13.06-.05,19.58-.04,2.07,0,3.18-.92,3.16-3.01-.09-6.82,.27-13.61,1.14-20.38,.91-7.1,2.89-13.87,5.98-20.3,7.38-15.28,19.86-23.49,36.32-26.36,14.07-2.45,27.67-.09,41.24,3.35,1.99,.51,2.87,1.63,2.87,3.56,0,9.65,.04,19.3-.02,28.95,0,2.16-.93,2.75-3.35,2.26-5.83-1.19-11.62-2.63-17.67-2.31-3.15,.16-6.18,.63-9.16,1.69-7.32,2.61-11.66,7.79-13.31,15.28-.36,1.65-.58,3.36-.71,5.05-1.06,14.73-1.52,12.03,10.64,12.22,9.93,.15,19.87,0,29.81,.07,2.95,.02,3.74,.71,3.76,3.37,.06,9.93,0,19.87-.02,29.8,0,1.7-1.02,2.66-2.61,2.71-3.68,.11-7.38,.07-11.07,.09-9.08,.01-18.16-.02-27.26,.06-2.65,.02-3.47,.92-3.62,3.58-.11,1.98-.06,3.97-.06,5.96v57.04Z"/>
    <path d="M1602.92,361.34v-106.47c0-2.28-.05-4.54,.02-6.82,.1-3.36,.52-3.87,4.02-3.88,11.93-.06,23.86,0,35.78-.02,2.13,0,3.04,1.06,3.01,3.12-.02,1.99,.02,3.97,.02,5.96v216.35c0,11.02,.8,9.55-9.49,9.63-9.65,.06-19.31,.06-28.96-.02-3.81-.04-4.24-.6-4.37-4.57-.06-1.99-.01-3.97-.01-5.96v-107.33h-.02Z"/>
    <path d="M632.11,395.43v74.01c0,1.99,.05,3.97-.02,5.96-.11,2.96-.72,3.77-3.35,3.78-12.19,.04-24.38,0-36.59-.05-1.68,0-2.59-1.02-2.7-2.64-.11-1.69-.06-3.4-.06-5.1v-152.27c0-1.42-.04-2.84,.02-4.25,.12-3.05,.61-3.71,3.32-3.72,11.91-.05,23.82-.06,35.73,0,2.86,.01,3.48,.7,3.6,3.47,.1,2.26,.04,4.54,.04,6.81v74.01h.01Z"/>
    <path d="M611.47,288.92c-5.77,.35-11.26-.76-16.34-3.6-6.42-3.57-9.92-9.11-10.67-16.35-1.75-16.77,5.88-26.46,22.56-28.73,6.63-.91,13.01,.06,19.03,2.82,6.3,2.89,10.31,7.76,11.56,14.72,.15,.83,.37,1.65,.51,2.5,2.58,15.71-6.49,27.32-22.41,28.61-1.41,.11-2.82,.01-4.24,.01h0Z"/>
  </g>
  <g>
    <path d="M208.9,286.8c-2.2,.61-4.62,1.29-7.05,1.93-22.17,5.87-42.06,25.19-45.31,52.09-3.74,30.98,13.71,52.89,32.06,62.8,2.67,1.44,6.68,1.64,7.68,4.73,.8,2.46-.25,5.56-.6,8.36-2.51,19.99-5.06,39.97-7.59,59.97-.17,1.39-.2,2.8-.31,4.32,4.91,1.33,9.75,.46,14.53,.71,1.7,.09,3.41,0,5.1,.15,1.24,.11,1.97,1.01,2.1,2.24,.12,1.12,.16,2.26,.16,3.4v80.08c0,1.12-.17,2.25-.26,3.42-2.71,.8-4.27-1.18-6.03-2.31-33.23-21.26-66.45-42.57-99.65-63.88-9.08-5.82-18.15-11.67-27.22-17.49-1.43-.92-2.92-1.75-4.3-2.75-7.33-5.19-9.85-12.17-7.51-20.84,.51-1.92,1.27-3.76,1.92-5.64,7.84-22.49,15.54-45.04,23.64-67.44,1.92-5.3,2.23-10.18,1-15.63-12.6-55.69,12.65-113.39,63.62-142.04,14.52-8.16,30.14-13.08,46.59-15.43,1.68-.24,3.4-.34,5.1-.39,2.29-.09,3.1,.58,3.1,2.9,0,21.59-.02,43.16-.07,64.74,0,.53-.34,1.06-.65,1.98l-.02,.03Z"/>
    <path d="M290.83,239.78c2.56-.42,3.66,1.14,4.9,2.09,7.94,6.07,6.59,4.43,6.61,13.29,.04,87.16,.02,174.32,.02,261.47,0,1.42-.09,2.85,0,4.25,.17,2.55-.9,4.29-3.09,5.56-2.44,1.41-4.76,3.01-6.95,4.42-2.21-.72-1.63-2.33-1.68-3.6-.09-1.98-.02-3.97-.02-5.96V248.76c0-3.04,.15-6.07,.21-8.98h0Z"/>
    <path d="M313.83,515.31v-255.02c1.74-.82,2.51,.55,3.43,1.56,.39,.42,.75,.86,1.11,1.29,4.65,5.56,6.98,11.91,6.99,19.05v218.81c0,6.09-2.68,10.7-8.05,13.82-1,.58-1.97,1.12-3.47,.49h-.01Z"/>
    <path d="M337.73,501.54c-.41-1.17-.92-1.94-.92-2.72-.04-67.55-.04-135.1-.04-202.95,2.79,.46,2.55,2.6,3.02,3.81,9.63,25.09,11.27,50.83,5.29,76.97-1.01,4.42-1.11,8.31,.73,12.35,2.28,5.01,2.77,10.29,2.75,15.78-.11,26.98-.05,53.97-.05,80.95,0,1.99-.07,3.98,0,5.96,.07,2.23-.92,3.76-2.76,4.88-2.63,1.59-5.21,3.23-8.02,4.98h0Z"/>
    <path d="M254.88,399.84c1.39,2.2,.95,3.94,.95,5.6,.02,47.38,.02,94.75,.02,142.11,0,1.42-.01,2.84-.02,4.25,0,1.17-.24,2.34-1.23,3.02-2.95,2-5.71,4.39-8.98,5.46-1.67-1.47-1.22-2.97-1.22-4.32-.02-22.69-.04-45.38,0-68.08,0-1.93-.77-4.96,1.03-5.49,4.72-1.37,3.27-4.63,2.94-7.43-1.89-15.48-3.93-30.94-5.92-46.41-.76-5.91-1.53-11.81-2.29-17.72-.27-2.13,.11-3.68,2.45-4.72,4.13-1.83,8.06-4.11,12.29-6.31h-.01Z"/>
    <path d="M278.97,368.13c.06,2.15,.19,4.32,.19,6.47v157.67c0,1.13-.09,2.28,0,3.41,.22,2.55-.78,4.34-3.01,5.56-2.66,1.46-4.94,3.67-7.91,4.39-1.49-2.19-.9-4.21-.9-6.1-.04-48.58,0-97.15-.07-145.73,0-4.09,.52-7.7,3.17-11.1,3.41-4.38,5.3-9.72,8.52-14.57h.01Z"/>
    <path d="M278.81,331.73c-3.31-7.95-6.18-14.33-10.35-19.99-1.51-2.04-1.11-4.33-1.11-6.56-.04-13.61-.02-27.23-.02-40.84v-36.54c2.3-1.44,3.96-.19,5.62,.65,1.77,.88,3.56,1.75,5.19,2.85,.56,.37,.83,1.42,.92,2.19,.16,1.41,.1,2.84,.1,4.24v85.94c0,2.15-.19,4.29-.35,8.04v.02Z"/>
    <path d="M221.88,573.52c-1.05-1.78-.65-3.52-.65-5.19-.02-26.34-.02-52.68-.01-79.03,0-1.69,.02-3.4,.12-5.09,.11-1.69,1.17-2.48,2.79-2.5,1.98-.04,3.97-.05,5.95,0,1.6,.05,2.67,.86,2.77,2.54,.1,1.69,.12,3.4,.12,5.09v73.08c0,1.42,0,2.84-.05,4.24-.04,1.16-.3,2.28-1.32,2.97-2.97,2.04-5.76,4.59-9.73,3.87h0Z"/>
    <path d="M255.1,297.27c-.27,.04-.61,.2-.82,.1-6.59-3.16-9.88-8.41-9.88-15.76v-53.7c0-2.26,.12-4.53,.29-6.78,.06-1.01,.95-1.47,1.77-1.43,1.12,.06,2.21,.47,3.32,.73,5.95,1.39,6.03,1.39,6.05,7.13,.04,21.87,.01,43.76,0,65.63,0,1.39,.24,2.84-.72,4.07h0Z"/>
    <path d="M232.24,217.77c1,6.69,1.31,51.37,.45,69.17-3.18,1.28-6.44-.09-9.67-.34-1.03-.07-1.41-.97-1.57-1.75-.22-1.09-.22-2.25-.24-3.38v-60.38c0-.57,.01-1.13,.02-1.7,.01-1.74,1.02-2.61,2.64-2.56,2.81,.09,5.69-.19,8.37,.93h-.01Z"/>
    <path d="M361.19,432.87c3.71,10.66,7.7,21.22,11.02,32.01,2.63,8.51-1.7,16.89-10.04,21.08-1.09,.55-2.35-.06-2.48-1.19-.02-.29-.07-.56-.07-.85v-50.8c.52-.09,1.05-.16,1.57-.25h0Z"/>
  </g>
</svg>