<?xml version="1.0" encoding="UTF-8"?>
<svg id="Layer_1" data-name="Layer 1" xmlns="http://www.w3.org/2000/svg" viewBox="0 0 1700 581.71">
  <defs>
    <style>
      .cls-1 {
        fill: #060608;
      }
    </style>
  </defs>
  <path class="cls-1" d="M267.35,358.59v25.54c0,1.54,1.66,2.51,3,1.75l134.53-76.53c.63-.36,1.02-1.02,1.02-1.75v-27.1c0-1.55-1.68-2.51-3.02-1.74l-134.53,78.1c-.62,.36-1,1.02-1,1.74Z"/>
  <g>
    <g>
      <path class="cls-1" d="M627.13,291.68c0-43.29,25.97-70.89,69.81-70.89s68.99,27.6,68.99,70.89-25.43,70.62-68.99,70.62-69.81-27.6-69.81-70.62Zm99.3,0c0-26.52-7.58-35.17-29.49-35.17s-29.76,8.66-29.76,35.17,7.58,34.9,29.76,34.9,29.49-8.66,29.49-34.9Z"/>
      <path class="cls-1" d="M774.86,359.59V223.5h37.61v21.92h1.62c6.76-13.8,18.94-24.62,38.15-24.62,28.41,0,38.96,21.1,38.96,48.43v12.45h-40.32v-7.31c0-14.61-4.6-19.21-17.32-19.21s-18.4,4.33-18.4,19.21v85.23h-40.32Z"/>
      <path class="cls-1" d="M897.16,359.59V223.5h37.61v23.81h1.62c7.31-15.42,21.38-26.52,44.64-26.52s37.34,10.55,44.1,26.52h1.35c7.58-14.88,21.1-26.52,46.27-26.52,35.17,0,49.51,23.54,49.51,52.49v86.31h-40.59v-78.19c0-18.94-5.68-25.7-25.43-25.7-18.4,0-26.25,5.95-26.25,25.7v78.19h-40.59v-78.19c0-18.94-5.95-25.7-25.43-25.7-18.4,0-26.52,5.95-26.52,25.16v78.74h-40.31Z"/>
      <path class="cls-1" d="M1136.08,309.81v-86.31h40.31v78.19c0,18.94,6.49,25.7,26.79,25.7s27.87-6.22,27.87-26.79v-77.11h40.31v136.1h-37.61v-23.81h-1.35c-7.58,15.69-21.92,26.52-45.73,26.52-35.71,0-50.59-23.54-50.59-52.49Z"/>
      <path class="cls-1" d="M1286.78,359.59V178.31h40.32v181.28h-40.32Z"/>
      <path class="cls-1" d="M1335.76,324.96c0-21.1,15.15-34.09,43.29-38.42l46.54-7.04v-4.33c0-15.96-8.66-18.94-24.62-18.94s-23,4.6-23,18.4v2.98h-38.69v-2.98c0-32.47,25.16-53.84,63.58-53.84s61.15,21.92,61.15,58.17v80.63h-37.61v-18.4h-1.62c-7.3,10.01-21.1,21.1-46.27,21.1s-42.75-12.72-42.75-37.34Zm56.28,6.49c16.5,0,33.55-4.33,33.55-25.43l-38.96,5.95c-8.39,1.35-12.17,4.06-12.17,9.74,0,7.31,5.68,9.74,17.59,9.74Z"/>
      <path class="cls-1" d="M1478.62,359.59V223.5h37.61v21.92h1.62c6.76-13.8,18.94-24.62,38.15-24.62,28.41,0,38.96,21.1,38.96,48.43v12.45h-40.32v-7.31c0-14.61-4.6-19.21-17.32-19.21s-18.4,4.33-18.4,19.21v85.23h-40.31Z"/>
    </g>
    <g>
      <polygon class="cls-1" points="528.37 214.87 528.37 214.84 623.38 214.84 602.29 178.31 487.78 178.31 487.78 214.87 528.37 214.87"/>
      <polygon class="cls-1" points="528.37 233.39 487.78 233.39 487.78 359.59 528.37 359.59 528.37 292.49 619.82 292.49 619.82 256.23 528.37 256.23 528.37 233.39"/>
    </g>
  </g>
  <path class="cls-1" d="M267.35,420.95v25.54c0,1.54,1.66,2.51,3,1.75l81.91-47.21c.63-.36,1.02-1.02,1.02-1.75v-27.1c0-1.55-1.68-2.51-3.02-1.74l-81.91,48.77c-.62,.36-1,1.02-1,1.74Z"/>
  <g>
    <path class="cls-1" d="M255.8,178.35l48.67-28.2c1.33-.77,1.34-2.7,0-3.47l-50.98-29.73c-.63-.36-1.4-.36-2.02,0l-48.7,28.4c-1.33,.78-1.33,2.7,0,3.47l51.02,29.53c.62,.36,1.39,.36,2.01,0Z"/>
    <path class="cls-1" d="M253.8,213.36l-52.06,30.16c-1.34,.77-1.33,2.71,0,3.48l50.5,29.12c.62,.36,1.39,.36,2.02,0l51.8-30.21c1.33-.78,1.33-2.7,0-3.47l-50.24-29.07c-.62-.36-1.39-.36-2.01,0Z"/>
    <path class="cls-1" d="M287.02,197.59l50.13,29.01c.62,.36,1.39,.36,2.02,0l48.19-28.1c1.33-.77,1.33-2.69,0-3.47l-49.78-29.03c-.62-.36-1.39-.36-2.02,0l-48.54,28.12c-1.34,.77-1.34,2.7,0,3.48Z"/>
    <path class="cls-1" d="M222.57,194.13l-50.91-29.46c-.62-.36-1.39-.36-2.02,0l-52.03,30.35c-1.33,.78-1.33,2.7,0,3.47l50.83,29.31c.62,.36,1.39,.36,2.01,0l52.12-30.2c1.34-.77,1.34-2.7,0-3.48Z"/>
  </g>
  <g>
    <path class="cls-1" d="M239.03,352.66v-59.99c0-.72-.38-1.38-1-1.74L104.19,213.7c-1.34-.77-3.01,.19-3.01,1.74v59.76c0,.72,.38,1.38,1,1.74l133.84,77.46c1.34,.77,3.01-.19,3.01-1.74Z"/>
    <path class="cls-1" d="M101.17,313.68v56.43c0,.72,.39,1.39,1.01,1.74l133.84,76.37c1.34,.76,3-.2,3-1.74v-55.35c0-.72-.38-1.38-1-1.74l-133.84-77.46c-1.34-.77-3.01,.19-3.01,1.74Z"/>
  </g>
  <path class="cls-1" d="M267.35,293.2v25.54c0,1.54,1.66,2.51,3,1.75l134.53-76.53c.63-.36,1.02-1.02,1.02-1.75v-27.1c0-1.55-1.68-2.51-3.02-1.74l-134.53,78.1c-.62,.36-1,1.02-1,1.74Z"/>
  <g>
    <path class="cls-1" d="M489.64,464.21v-55.28h24.01c9.98,0,16.66,4.7,16.66,13.78,0,6.19-3.63,10.73-10.56,12.05v.49c8.08,1.32,12.21,6.68,12.21,13.78,0,9.57-6.93,15.18-17.65,15.18h-24.67Zm5.86-31.35h17.32c8.08,0,11.55-2.64,11.55-9.24s-2.97-9.32-11.05-9.32h-17.82v18.56Zm0,25.99h18.64c8.25,0,11.88-2.89,11.88-10.48s-3.71-10.48-11.88-10.48h-18.64v20.96Z"/>
    <path class="cls-1" d="M581.62,464.21v-55.28h22.52c11.38,0,19.14,5.86,19.14,16.09,0,9.41-6.52,15.1-16.42,15.35v.49c3.46,1.07,5.77,3.38,7.67,6.77l9.49,16.58h-6.85l-8.91-15.51c-2.72-4.79-5.61-7.01-12.79-7.01h-8v22.52h-5.86Zm5.86-27.56h17.57c8.5,0,12.29-3.38,12.29-11.22s-3.79-11.14-12.29-11.14h-17.57v22.36Z"/>
    <path class="cls-1" d="M667.24,464.21l22.36-55.28h8.42l22.36,55.28h-6.35l-6.68-16.17h-27.31l-6.6,16.17h-6.19Zm14.93-21.53h22.93l-8.08-19.72-3.14-8.41h-.41l-3.22,8.41-8.08,19.72Z"/>
    <path class="cls-1" d="M766.15,464.21v-55.28h6.35l24.83,36.8,5.86,8.66h.49v-45.46h5.94v55.28h-6.43l-25-36.8-5.78-8.5h-.41v45.29h-5.86Z"/>
    <path class="cls-1" d="M861.35,464.21v-55.28h18.65c16.66,0,27.14,10.73,27.14,27.64s-10.48,27.64-27.14,27.64h-18.65Zm5.86-49.91v44.55h12.79c14.68,0,20.95-7.26,20.95-22.28s-6.27-22.27-20.95-22.27h-12.79Z"/>
    <path class="cls-1" d="M1010.99,436.57c0-17.24,9.49-28.46,25.16-28.46,13.53,0,22.69,8,22.69,20.54v.66h-6.27v-.66c0-9.73-5.2-14.85-16.75-14.85-12.95,0-18.65,7.43-18.65,22.77s5.69,22.77,18.65,22.77c11.55,0,16.75-5.11,16.75-14.85v-.66h6.27v.66c0,12.54-9.16,20.54-22.69,20.54-15.68,0-25.16-11.22-25.16-28.46Z"/>
    <path class="cls-1" d="M1106.35,436.57c0-17.24,10.06-28.46,25.24-28.46s25.16,11.22,25.16,28.46-10.06,28.46-25.16,28.46-25.24-11.22-25.24-28.46Zm44.22,0c0-15.34-6.02-22.77-18.97-22.77s-19.06,7.43-19.06,22.77,6.11,22.77,19.06,22.77,18.97-7.42,18.97-22.77Z"/>
    <path class="cls-1" d="M1205.83,464.21v-55.28h6.35l24.83,36.8,5.86,8.66h.49v-45.46h5.94v55.28h-6.43l-25-36.8-5.77-8.5h-.41v45.29h-5.86Z"/>
    <path class="cls-1" d="M1299.13,447.46v-1.24h5.86v.91c0,7.67,4.04,12.46,16.33,12.46,9.16,0,13.45-3.05,13.45-9.4s-2.8-8.5-11.14-10.31l-9.57-2.14c-8.66-1.82-14.6-5.78-14.6-14.69,0-8,6.6-14.93,19.72-14.93,14.35,0,20.62,8.74,20.62,17.74v1.07h-5.86v-.91c0-7.59-3.96-12.46-14.85-12.46-9.16,0-13.69,3.05-13.69,9.08s3.05,8.08,11.14,9.98l9.57,2.23c9.16,2.06,14.6,6.35,14.6,15.01s-6.52,15.18-19.55,15.18c-15.35,0-22.03-8.08-22.03-17.57Z"/>
    <path class="cls-1" d="M1389.38,442.43v-33.5h5.94v33.5c0,11.8,4.87,16.91,16.99,16.91s16.91-5.11,16.91-16.91v-33.5h5.94v33.5c0,14.44-8.91,22.6-22.85,22.6s-22.93-8.17-22.93-22.6Z"/>
    <path class="cls-1" d="M1486.88,464.21v-55.28h5.86v49.91h30.28v5.36h-36.13Z"/>
    <path class="cls-1" d="M1573.33,464.21v-49.91h-19.55v-5.36h45.04v5.36h-19.63v49.91h-5.86Z"/>
  </g>
</svg>