<?xml version="1.0" encoding="UTF-8"?>
<svg id="Layer_1" data-name="Layer 1" xmlns="http://www.w3.org/2000/svg" viewBox="0 0 1700 589.3">
  <defs>
    <style>
      .cls-1 {
        fill: #080a0f;
      }
    </style>
  </defs>
  <g>
    <path class="cls-1" d="M467.51,349.36V216.01h21.5v56.92h30.85l35.03-56.92h24.48l-41.4,66.08,41.2,67.27h-24.68l-34.23-55.73h-31.25v55.73h-21.5Z"/>
    <path class="cls-1" d="M577.18,299.8c0-30.65,18.31-51.35,47.77-51.35,26.67,0,45.38,15.92,45.38,42.99,0,5.17-.6,10.55-1.19,13.53h-71.85c.8,18.11,7.36,27.27,28.06,27.27,16.52,0,22.89-5.57,22.89-14.53v-1.59h21.3v1.79c0,20.3-17.71,33.44-44.39,33.44-32.64,0-47.97-20.7-47.97-51.55Zm20.3-9.15h52.35c.79-16.92-8.36-24.08-25.28-24.08-18.71,0-25.87,8.76-27.07,24.08Z"/>
    <path class="cls-1" d="M687.64,349.36V216.01h21.5v133.35h-21.5Z"/>
    <path class="cls-1" d="M758.9,349.36l-39.61-98.92h23.88l28.86,78.42h1.39l29.06-78.42h23.29l-39.81,98.92h-27.07Z"/>
    <path class="cls-1" d="M833.94,237.9l-.2-21.89h21.5v21.89h-21.3Zm0,111.46v-99.52h21.5v99.52h-21.5Z"/>
    <path class="cls-1" d="M875.14,349.36v-98.92h19.7v18.51h.8c4.58-10.55,15.13-20.5,34.43-20.5,25.68,0,37.22,16.32,37.22,38.81v62.1h-21.5v-57.32c0-17.71-5.57-25.08-23.68-25.08s-25.48,6.77-25.48,25.28v57.12h-21.5Z"/>
    <path class="cls-1" d="M1024.61,307.96v-3.38h21.1v2.19c0,16.52,6.96,24.88,34.83,24.88,19.71,0,26.87-5.37,26.87-17.71s-3.98-16.52-24.48-20.7l-22.69-4.58c-22.89-4.38-35.23-15.53-35.23-36.62,0-19.71,15.33-38.02,49.76-38.02,36.82,0,51.55,20.7,51.55,44.39v2.39h-21.1v-2.19c0-16.32-7.16-24.88-31.05-24.88-19.71,0-27.67,5.57-27.67,17.32s5.37,15.53,23.69,19.51l22.69,4.78c25.08,5.17,36.03,17.71,36.03,37.82s-15.13,38.21-49.16,38.21c-38.41,0-55.13-17.71-55.13-43.39Z"/>
    <path class="cls-1" d="M1140.25,324.88c0-16.32,11.94-24.88,33.04-27.86l34.63-5.17v-5.37c0-14.73-6.77-19.11-22.29-19.11s-21.89,4.98-21.89,18.11v2.99h-20.7v-1.99c0-22.09,17.32-38.02,43.79-38.02s41.6,16.72,41.6,40.8v60.11h-19.9v-15.53h-1c-5.77,9.35-17.12,17.52-35.83,17.52-17.72,0-31.45-9.16-31.45-26.47Zm38.41,9.35c13.93,0,29.26-5.57,29.26-25.48v-1.79l-31.45,4.78c-11.34,1.59-15.32,4.18-15.32,11.55,0,7.76,4.97,10.95,17.51,10.95Z"/>
    <path class="cls-1" d="M1275.4,349.36l-39.61-98.92h23.89l28.86,78.42h1.39l29.06-78.42h23.29l-39.81,98.92h-27.07Z"/>
    <path class="cls-1" d="M1344.87,324.88c0-16.32,11.94-24.88,33.04-27.86l34.63-5.17v-5.37c0-14.73-6.77-19.11-22.29-19.11s-21.89,4.98-21.89,18.11v2.99h-20.7v-1.99c0-22.09,17.32-38.02,43.79-38.02s41.6,16.72,41.6,40.8v60.11h-19.9v-15.53h-1c-5.77,9.35-17.12,17.52-35.83,17.52-17.72,0-31.45-9.16-31.45-26.47Zm38.41,9.35c13.93,0,29.26-5.57,29.26-25.48v-1.79l-31.45,4.78c-11.34,1.59-15.32,4.18-15.32,11.55,0,7.76,4.97,10.95,17.52,10.95Z"/>
    <path class="cls-1" d="M1449.16,294.23c0-27.86,15.33-45.78,43.19-45.78,15.92,0,28.26,6.77,33.04,18.31h.79v-16.32h19.71v91.76c0,29.26-17.12,42.99-45.98,42.99s-45.58-13.33-45.58-37.22h21.3c0,13.53,4.97,18.11,24.88,18.11s24.08-5.57,24.08-23.88v-19.7h-.8c-4.58,9.55-16.12,17.51-32.24,17.51-27.27,0-42.4-17.91-42.4-45.78Zm48.56,27.47c16.12,0,26.87-7.76,26.87-24.48v-6.17c0-16.52-10.75-24.28-27.27-24.28-18.51,0-26.67,7.17-26.67,27.47s8.36,27.47,27.07,27.47Z"/>
    <path class="cls-1" d="M1562.02,299.8c0-30.65,18.31-51.35,47.77-51.35,26.67,0,45.38,15.92,45.38,42.99,0,5.17-.6,10.55-1.19,13.53h-71.85c.8,18.11,7.37,27.27,28.07,27.27,16.52,0,22.89-5.57,22.89-14.53v-1.59h21.3v1.79c0,20.3-17.71,33.44-44.39,33.44-32.64,0-47.97-20.7-47.97-51.55Zm20.3-9.15h52.35c.8-16.92-8.36-24.08-25.28-24.08-18.71,0-25.87,8.76-27.07,24.08Z"/>
    <path class="cls-1" d="M509.5,501.44l-50.55-133.35h24.08l40.2,109.47h1.59l39.81-109.47h23.88l-50.56,133.35h-28.46Z"/>
    <path class="cls-1" d="M585.74,451.87c0-30.65,18.31-51.35,47.77-51.35,26.67,0,45.38,15.92,45.38,42.99,0,5.17-.6,10.55-1.2,13.53h-71.85c.8,18.11,7.36,27.27,28.07,27.27,16.52,0,22.89-5.57,22.89-14.53v-1.59h21.3v1.79c0,20.3-17.72,33.44-44.39,33.44-32.64,0-47.97-20.7-47.97-51.55Zm20.3-9.15h52.35c.8-16.92-8.36-24.08-25.28-24.08-18.71,0-25.88,8.76-27.07,24.08Z"/>
    <path class="cls-1" d="M696.01,501.44v-98.92h19.7v18.51h.8c4.58-10.55,15.13-20.5,34.43-20.5,25.68,0,37.22,16.32,37.22,38.81v62.1h-21.5v-57.32c0-17.71-5.57-25.08-23.68-25.08s-25.48,6.77-25.48,25.28v57.12h-21.5Z"/>
    <path class="cls-1" d="M815.23,470.98v-50.56h-16.52v-17.91h16.92l4.58-24.48h16.52v24.48h29.86v17.91h-29.86v49.56c0,10.35,4.38,12.14,17.71,12.14h12.14v17.51c-4.18,.99-10.95,1.79-17.72,1.79-22.09,0-33.64-8.16-33.64-30.45Z"/>
    <path class="cls-1" d="M880.71,463.62v-61.1h21.5v57.32c0,17.71,6.77,25.08,23.88,25.08s25.87-7.17,25.87-26.67v-55.73h21.5v98.92h-19.91v-19.7h-.8c-4.78,11.34-15.32,21.69-34.63,21.69-25.88,0-37.42-17.32-37.42-39.81Z"/>
    <path class="cls-1" d="M994.56,501.44v-99.52h19.7v15.72h1c3.98-9.16,13.14-17.12,27.67-17.12,20.7,0,28.66,15.13,28.66,33.64v6.57h-21.5v-3.98c0-13.14-3.78-17.91-16.32-17.91s-17.71,4.98-17.71,18.11v64.49h-21.5Z"/>
    <path class="cls-1" d="M1081.34,451.87c0-30.65,18.31-51.35,47.77-51.35,26.67,0,45.38,15.92,45.38,42.99,0,5.17-.6,10.55-1.19,13.53h-71.85c.8,18.11,7.37,27.27,28.07,27.27,16.52,0,22.89-5.57,22.89-14.53v-1.59h21.3v1.79c0,20.3-17.71,33.44-44.39,33.44-32.64,0-47.97-20.7-47.97-51.55Zm20.3-9.15h52.35c.8-16.92-8.36-24.08-25.28-24.08-18.71,0-25.87,8.76-27.07,24.08Z"/>
    <path class="cls-1" d="M1190.22,468v-.4h20.7v3.58c0,10.75,4.78,14.73,23.69,14.73,15.92,0,18.91-3.58,18.91-10.95,0-7.96-4.78-10.35-19.31-12.94l-15.32-2.59c-17.72-3.18-28.86-11.15-28.86-29.06s14.73-29.86,40.6-29.86c23.29,0,40.8,11.55,40.8,34.03v1.79h-20.5v-2.39c0-9.15-3.19-15.72-20.9-15.72-15.72,0-19.51,4.18-19.51,11.74s3.58,9.75,17.52,12.54l16.72,3.19c19.11,3.78,29.06,12.34,29.06,28.66,0,18.31-14.53,29.06-39.61,29.06-28.86,0-43.99-11.35-43.99-35.43Z"/>
  </g>
  <g>
    <g>
      <polygon class="cls-1" points="44.83 84.9 44.83 205.01 150.13 84.9 44.83 84.9"/>
      <polygon class="cls-1" points="44.83 223.78 44.83 320.43 253.52 84.9 170.03 84.9 44.83 223.78"/>
      <polygon class="cls-1" points="44.83 337.16 44.83 437.17 354.71 84.9 270.55 84.9 44.83 337.16"/>
    </g>
    <polygon class="cls-1" points="118.97 468.84 130.51 455.68 130.55 455.72 169.3 411.65 169.21 411.55 170.63 409.93 171.54 409.11 220.75 353.17 220.58 352.98 232.71 339.15 232.9 339.36 341.07 216.38 381.84 169.12 381.84 169.12 381.84 169.12 454.49 84.9 372.47 84.9 44.83 454.16 44.83 504.4 87.72 504.4 118.98 468.86 118.97 468.84"/>
    <g>
      <polygon class="cls-1" points="138.2 464.63 172.33 504.4 251.54 504.4 177.25 420.62 138.2 464.63"/>
      <polygon class="cls-1" points="102.91 504.4 149.18 504.4 126.54 477.76 102.91 504.4"/>
      <polygon class="cls-1" points="189.62 406.67 268.88 504.4 354.71 504.4 228.91 362.39 189.62 406.67"/>
      <polygon class="cls-1" points="280.32 304.45 240.97 348.8 372 502.08 456.36 504.4 280.32 304.45"/>
    </g>
  </g>
</svg>