<?xml version="1.0" encoding="UTF-8"?>
<svg id="Layer_1" data-name="Layer 1" xmlns="http://www.w3.org/2000/svg" viewBox="0 0 1700 1064.43">
  <g>
    <path d="M1152.92,809.01c-1.58,4.37-3.13,8.61-4.66,12.87-1.81,5.03-3.43,10.14-5.43,15.09-2.28,5.64-3.55,11.5-4.74,17.42-.39,1.92-.45,3.84,0,5.72,.89,3.75,3.04,6.39,6.92,7.37,.67,.17,1.33,.32,2,.47,.87,.19,2.21-.09,2,1.38-.15,1.01-1.21,.9-2.03,.9-.69,0-1.37,0-2.06,0-30.21,0-60.42,0-90.63,0-1.23,0-2.47-.04-3.69-.14-.67-.06-.78-.66-.8-1.23-.01-.58,.17-1.16,.76-1.29,.8-.17,1.64-.13,2.46-.24,5.87-.8,9.83-3.94,11.62-9.64,.95-3.02,1.48-6.14,1.64-9.3,.16-3.15,.27-6.31,.27-9.47,.02-24.3,.02-48.6,0-72.9,0-1.48,.33-3.02-.38-4.43-3.55-.44-71.12-.44-74.47,0-.57,1.03-.34,2.15-.34,3.23-.01,25.4,0,50.8,0,76.19,0,4.82,.44,9.6,1.64,14.27,.34,1.32,.8,2.62,1.34,3.88,1.62,3.75,4.42,6.22,8.32,7.4,1.31,.4,2.67,.6,3.99,.96,.61,.17,.72,.75,.75,1.31,.03,.62-.27,1.1-.83,1.26-.51,.15-1.08,.12-1.63,.12-18.54,0-37.08,0-55.62,0-.55,0-1.1-.04-1.63-.13-.66-.12-.8-.65-.81-1.22,0-.58,.17-1.14,.76-1.29,.66-.17,1.36-.13,2.04-.23,5.64-.82,9.59-3.85,11.72-9.13,1.03-2.55,1.76-5.21,1.94-7.97,.18-2.87,.37-5.76,.37-8.64,.02-37.21,.02-74.41,0-111.62,0-3.57-.02-7.13-.96-10.62-1.97-7.37-6.46-12.24-13.9-14.27-.52-.14-1.09-.23-1.51-.52-.27-.19-.39-.71-.41-1.08-.01-.4,.23-.78,.72-.81,.82-.05,1.64-.09,2.46-.09,18.13,0,36.26,0,54.38,0,.69,0,1.38-.03,2.06,.06,.4,.05,.79,.36,.73,.82-.05,.37-.22,.91-.48,1.03-.61,.26-1.3,.36-1.97,.43-5.62,.64-9.24,3.76-11.23,8.96-1.35,3.5-2.02,7.16-2.1,10.86-.17,7.82-.09,15.65-.09,23.47,0,.26,.17,.51,.32,.93,.59,.07,1.24,.21,1.9,.21,24.16,.01,48.31,0,72.25,0,.67-.83,.69-1.51,.68-2.2-.07-6.59-.1-13.18-.24-19.76-.08-3.58-.75-7.09-1.68-10.54-.32-1.19-.76-2.35-1.23-3.49-1.57-3.79-4.39-6.24-8.27-7.46-1.43-.45-2.93-.71-4.39-1.07-.63-.15-.86-.63-.9-1.2-.04-.66,.35-1,.97-1.03,.82-.04,1.65-.04,2.47-.04,17.99,0,35.98,0,53.97,0,.96,0,1.91,.06,2.87,.12,.53,.03,.66,.52,.62,.88-.05,.36-.29,.83-.58,.98-.47,.24-1.04,.29-1.58,.35-4.57,.51-7.85,3.03-10.33,6.72-2.44,3.62-3.47,7.74-3.9,12.01-.24,2.45-.32,4.93-.32,7.4-.02,35.83-.02,71.66,0,107.5,0,4.53,.13,9.06,1.09,13.52,.55,2.56,1.28,5.04,2.39,7.42,.7,1.51,1.52,2.95,2.74,4.07,4.68,4.3,10.42,5.78,15.99,.18,1.56-1.57,2.75-3.41,3.85-5.32,2.47-4.29,4.52-8.78,6.24-13.41,11.8-31.74,23.58-63.48,35.33-95.24,.66-1.79,1.21-3.66,1.52-5.54,.67-3.98-.68-6.56-4.23-8.5-.59-.32-1.34-.4-1.72-1.03-.13-.21-.16-.54-.1-.77,.06-.22,.27-.53,.46-.57,.53-.12,1.09-.15,1.63-.15,13.73,0,27.47,0,41.2,0,.54,0,1.08,.08,1.62,.17,.42,.08,.53,1.04,.28,1.42-.34,.52-.9,.57-1.36,.84-4.07,2.35-5.12,4.98-3.98,9.63,1.57,6.41,4.01,12.53,6.14,18.75,10.46,30.47,20.95,60.92,31.47,91.37,.67,1.93,1.52,3.83,2.52,5.62,1.87,3.31,4.33,6.01,8.24,6.98,.37,.09,.75,.32,1.03,.58,.16,.15,.21,.51,.17,.75-.04,.24-.24,.61-.42,.64-.94,.15-1.89,.28-2.84,.28-13.6,.02-27.19,.02-40.79,0-1.04,0-2.55,.52-2.93-.78-.48-1.67,1.21-1.81,2.3-2.27,4.31-1.82,6.6-5.06,7.23-9.7,.75-5.48-.23-10.66-2.24-15.7-1.43-3.59-3.45-6.87-5.89-9.86-9.25-11.34-20.8-19-35.3-21.82-4.03-.78-8.11-1.42-12.73-1.09Zm21.94-60c-.63,1.41-.94,2.02-1.18,2.66-5.5,14.61-10.99,29.22-16.48,43.83-.19,.51-.36,1.04-.52,1.56-.37,1.17-.16,1.58,.92,1.67,.96,.08,1.92,.09,2.88,.14,12.56,.71,23.81,4.82,33.58,12.83,.92,.76,1.69,1.79,3.43,2.16-7.51-21.52-14.85-42.81-22.62-64.84Z"/>
    <path d="M921.6,673.04c1.25,6.25,2.42,12.01,3.54,17.78,2.41,12.38,4.79,24.77,7.18,37.16,.08,.4,.25,.8,.26,1.2,.01,.55-.13,1.09-.77,1.28-.77,.24-1.31,.04-1.63-.73-.48-1.14-.97-2.27-1.48-3.39-9.27-20.03-24.98-32.21-46.14-37.68-7.11-1.84-14.37-2.23-21.67-1.68-6.81,.52-13.18,2.53-19.01,6.11-5.8,3.55-9.35,8.74-11.02,15.28-1.03,4.04-.13,7.61,2.57,10.74,1.44,1.67,3.12,3.08,4.97,4.29,3.12,2.03,6.43,3.65,9.97,4.81,16.79,5.53,33.71,10.67,50.68,15.63,7.9,2.31,15.73,4.87,23.2,8.34,15.42,7.16,25.43,19.12,29.29,35.57,4.54,19.36,.39,37.08-12.51,52.39-9.87,11.72-22.45,19.64-36.84,24.67-13.83,4.84-28.09,6.01-42.63,4.47-8.92-.95-17.54-3.08-25.96-6.09-1.94-.69-3.9-1.3-5.87-1.9-3.5-1.05-7.06-1-10.6-.36-2.03,.37-3.91,1.24-5.52,2.61-.61,.52-1.02,1.33-2.2,1.42-1.02-4.33-2.05-8.69-3.07-13.06-4.38-18.83-8.76-37.66-13.14-56.49-.09-.4-.23-.79-.29-1.2-.15-.95,.58-1.09,1.24-1.28,.7-.2,1.41-.27,1.72,.55,.34,.89,.59,1.83,.85,2.75,1.57,5.57,3.81,10.87,6.69,15.88,7.47,12.98,17.51,23.52,30.22,31.44,12.94,8.06,27.07,10.85,42.19,9.33,9.1-.92,17.83-3.06,26.04-7.11,4.96-2.45,9.47-5.54,13.3-9.57,5.4-5.69,8.46-12.41,8.83-20.3,.19-4.13,0-8.23-1.04-12.26-1.59-6.23-4.85-11.27-10.27-14.88-3.09-2.06-6.34-3.82-9.65-5.49-9.1-4.6-18.73-7.74-28.46-10.62-10.38-3.07-20.8-6.01-31.17-9.14-5.64-1.71-11.12-3.89-16.44-6.46-4.73-2.29-9.03-5.21-12.91-8.73-7.78-7.06-12.04-15.84-12.8-26.33-.14-1.95,.31-3.83,.52-5.73,.35-3.13,.65-6.29,1.36-9.35,1.56-6.73,5.12-12.37,10.02-17.19,2.86-2.8,6.05-5.17,9.5-7.19,9.85-5.76,20.48-9.05,31.78-10.57,11.89-1.6,23.55-.32,35.17,2.07,5.51,1.13,11,2.32,16.48,3.59,5.36,1.25,10.02,.02,14.1-3.62,.29-.26,.64-.46,1.41-1Z"/>
    <path d="M695.59,870.19c-14.52,.06-26.98-1.81-38.6-7.28-23.88-11.26-39.23-29.88-46.34-55.21-3.31-11.79-3.38-23.85-1.91-35.95,2.15-17.78,9.02-33.54,20.41-47.32,11.93-14.44,26.9-24.04,45.33-27.99,8.79-1.88,17.68-2.32,26.63-1.94,10.05,.43,19.97,1.79,29.5,5.15,26.65,9.38,43.76,28.05,52.13,54.74,4.75,15.17,5.43,30.77,2.43,46.42-2.47,12.9-7.91,24.51-16.27,34.66-15,18.21-34.12,29.4-57.41,33.39-5.83,1-11.74,1.22-15.89,1.34Zm-58.27-96.21c.27,2.92,.33,7.04,.96,11.12,1.29,8.3,3.65,16.32,6.38,24.22,2.65,7.68,6.27,14.9,10.98,21.55,5.14,7.26,11.38,13.32,19,17.97,16.59,10.14,38,9.3,53.2-.35,16.18-10.28,25.29-25.1,27.78-44.05,1.19-9.05,.75-18.07-.66-27.06-2.78-17.76-9.98-33.54-21.33-47.44-4.73-5.79-10.24-10.71-16.77-14.4-11.18-6.32-23.14-8.42-35.75-6.13-10.37,1.88-18.86,7.28-25.76,15.15-12.09,13.79-17.91,29.96-18.03,49.42Z"/>
    <path d="M525.57,726.79c9.25,.16,18.4,1.09,27.18,4.08,22.65,7.69,37,23.46,43.69,46.15,3.7,12.56,3.97,25.43,1.22,38.29-2.51,11.71-8.08,21.81-16.25,30.48-12.18,12.92-26.99,20.9-44.66,23.44-11.12,1.59-22.19,1.45-33.1-1.41-17.17-4.49-30.12-14.77-39.61-29.55-8.3-12.93-11.34-27.2-10.41-42.43,.56-9.26,2.46-18.21,6.23-26.7,5.29-11.9,13.01-21.91,23.51-29.67,9.97-7.37,21.23-11.3,33.56-12.22,2.87-.21,5.76-.3,8.64-.45Zm48.89,81.35c-.04-7.91-.78-14.29-2.57-21.1-3.6-13.67-10.05-25.79-20.16-35.77-7.8-7.71-17.19-12.05-28.25-12.71-11.32-.68-21.2,2.63-29.15,10.76-14.07,14.39-18.71,31.84-16.02,51.47,.97,7.09,3.07,13.93,5.51,20.63,3.33,9.12,8,17.49,15.05,24.29,12.53,12.09,27.31,16.16,43.94,10.72,13.08-4.28,22.06-13.52,27.51-26.12,3.16-7.29,4.27-15,4.13-22.17Z"/>
    <path d="M718.79,676.48c-1.62,1.7-2.76,3.82-4.67,4.3-1.74,.44-3.51-1.14-5.24-1.91-8.13-3.62-16.27-7.24-24.38-10.9-1.74-.79-3.45-1.69-5.08-2.69-1.76-1.08-3.27-2.5-4.49-4.19-2.8-3.87-3.56-7.93-1.24-12.34,.9-1.71,1.86-3.36,3.15-4.8,3.71-4.13,8.81-5.07,13.82-2.59,2.65,1.31,4.69,3.32,6.46,5.63,1.59,2.07,3.11,4.18,4.65,6.28,5.12,6.96,10.24,13.92,15.36,20.88,.48,.66,.95,1.33,1.65,2.31Z"/>
    <path d="M591.43,924.87c.23,1.75,1.29,2.52,2.02,3.49,1.89,2.52,3.83,5.02,5.81,7.48,2.55,3.18,5.64,5.59,9.76,6.4,.27,.05,.55,.09,.79,.21,.56,.29,.63,.82,.62,1.39-.01,.62-.3,1.14-.92,1.11-1.5-.09-3.03-.14-4.47-.5-4.79-1.21-8.82-3.63-11.83-7.68-2.61-3.53-5.38-6.94-8.04-10.43-.71-.92-1.47-1.52-2.72-1.5-4.67,.05-9.33,.03-14,.02-.97,0-1.55,.38-1.55,1.42,0,4.25,.02,8.51-.01,12.76-.02,2.22,1.24,3.84,2.67,5.69-1.81,.74-3.58,.33-5.28,.39-1.77,.07-3.54,.02-5.2,.02-.59-1.08,.27-1.42,.62-1.89,1.12-1.5,1.54-3.14,1.54-5-.03-11.8-.03-23.61,0-35.41,0-1.99-.45-3.78-1.62-5.41-.38-.53-1.03-.96-.74-2.01,.86,0,1.79,0,2.72,0,9.06,0,18.12,0,27.18,0,.96,0,1.93-.04,2.88,.08,7.15,.84,12.6,6.58,12.84,13.85,.28,8.67-5.08,13.75-10.88,14.96-.66,.14-1.31,.33-2.18,.55Zm-12.81-5.48h0c3.15,0,6.3,0,9.45,.01,2.09,.01,4.08-.41,5.93-1.4,3.16-1.7,5-4.28,4.89-7.93-.11-3.53-1.71-6.27-4.85-8.05-1.6-.91-3.36-1.22-5.14-1.23-5.62-.04-11.24-.06-16.85,.07-3.3,.07-5.07,1.88-5.15,5.12-.1,3.97-.01,7.94-.03,11.92,0,1.02,.47,1.49,1.48,1.49,3.43,0,6.85,0,10.28,0Z"/>
    <path d="M927.46,945.14c-3.67,0-6.68,0-9.68-.01-.37,0-.75-.17-1.1-.25-.29-.93,.45-1.26,.8-1.76,.97-1.4,1.41-2.92,1.4-4.63-.02-11.92-.02-23.85,0-35.77,0-1.84-.44-3.51-1.44-5.05-.36-.55-.99-.97-.89-1.76,.27-.72,.91-.44,1.37-.44,9.73-.02,19.47,0,29.2-.04,2.23,0,4.36,.37,6.4,1.25,5.5,2.38,9.01,7.83,8.66,14.15-.39,6.91-4.32,11.74-10.7,13.46-.78,.21-1.65,.18-2.26,.81-.16,.78,.33,1.26,.75,1.8,2.28,2.92,4.52,5.86,6.81,8.76,2.61,3.32,5.78,5.82,10.06,6.62,.27,.05,.58,.08,.78,.24,.48,.37,.52,.93,.47,1.49-.06,.63-.43,1.02-1.06,.99-1.23-.07-2.49-.06-3.67-.35-4.93-1.19-9.18-3.48-12.3-7.64-2.71-3.62-5.54-7.15-8.29-10.74-.72-.94-1.52-1.44-2.76-1.43-4.66,.05-9.32,.03-13.98,.03-1,0-1.49,.48-1.49,1.49,0,4.25,.03,8.5,0,12.75-.01,2.21,1.3,3.79,2.92,6.04Zm8.65-25.75v.02c3.29,0,6.58-.01,9.87,0,1.96,.01,3.81-.43,5.55-1.3,3.64-1.84,5.51-5.28,4.99-9.07-.55-3.98-3.4-7.13-7.32-7.9-1.47-.29-2.99-.36-4.49-.37-4.66-.02-9.32,.04-13.98,.07-.55,0-1.1,0-1.64,.06-2.59,.31-4.4,1.96-4.48,4.51-.14,4.24-.04,8.49-.04,12.74,0,.83,.48,1.23,1.27,1.23,3.43,.01,6.85,0,10.28,0Z"/>
    <path d="M1102.53,926.01c.27,1.57,.51,3.04,.76,4.5,.85,4.82,3.69,7.96,8.35,9.16,6.23,1.6,12.5,1.34,18.71-.32,1.33-.36,2.57-.94,3.67-1.79,1.35-1.04,2.22-2.37,2.53-4.09,.35-1.96-.19-3.52-1.83-4.66-1.48-1.02-3.11-1.73-4.85-2.18-4.24-1.1-8.49-2.16-12.74-3.23-3.45-.87-6.89-1.78-10.19-3.16-1.91-.8-3.73-1.74-5.34-3.03-3.45-2.77-4.6-6.33-3.61-10.63,.81-3.52,2.68-6.29,5.79-8.13,1.29-.77,2.64-1.52,4.06-1.94,7.12-2.11,14.32-2.35,21.49-.26,3.48,1.01,6.51,2.86,8.85,5.72,1.23,1.5,2.28,3.15,2.75,5.01,1.42,5.59,1.53,5.23-3.95,4.66-.94-.1-1.41-.64-1.51-1.62-.57-5.22-3.79-8.03-8.66-9.13-5.57-1.26-11.17-1.14-16.68,.39-1.29,.36-2.5,1.1-3.65,1.82-1.44,.91-2.34,2.32-2.85,3.92-.94,2.91-.19,5.04,2.35,6.79,1.48,1.01,3.11,1.75,4.83,2.23,3.96,1.1,7.92,2.17,11.9,3.2,3.58,.92,7.17,1.82,10.61,3.2,2.04,.82,4,1.79,5.72,3.19,2.73,2.24,4.17,5.27,2.63,9.99-.89,2.72-2.76,4.7-5.11,6.24-2.43,1.6-5.11,2.59-7.97,3.16-6,1.19-11.99,1.25-17.95-.12-10.17-2.33-13.76-9.83-13.93-17.85-.03-1.37,.31-1.67,1.7-1.53,1.35,.13,2.7,.32,4.12,.5Z"/>
    <path d="M1006.42,945.15c2.98-2.83,3.28-5.59,3.27-8.53-.07-10-.02-20-.02-30q0-6.29-2.34-10.97c.39-.07,.75-.19,1.12-.19,7.4-.01,14.8-.14,22.2,.02,6.96,.15,13.13,2.61,18.28,7.33,6,5.5,8.4,12.3,7.1,20.39-.66,4.12-1.95,7.97-4.36,11.4-4.26,6.07-10.12,9.48-17.46,10.3-1.77,.2-3.56,.23-5.33,.24-6.03,.03-12.06,.01-18.09,.01-1.08,0-2.16,0-4.35,0Zm8.82-24.88h.01c0,4.8-.09,9.59,.03,14.39,.08,3.18,2,5.08,5.19,5.16,3.97,.1,7.95,.08,11.92-.04,1.48-.05,3-.39,4.42-.84,8.94-2.82,14.25-11.27,13.97-19.19-.3-8.5-6.16-16.2-14.58-18.25-5.5-1.34-11.17-.89-16.78-.49-2.14,.15-3.38,1.73-3.98,3.68-.27,.89-.2,1.9-.21,2.85-.02,4.25,0,8.49,0,12.74Z"/>
    <path d="M688.53,905.82c-5.31-5.89-4.17-5.01-11.21-5.06-4.12-.03-8.24-.02-12.36,0-1.09,0-2.21,.01-3.28,.2-2.19,.38-3.87,1.93-3.98,4.1-.18,3.7-.09,7.41-.06,11.11,0,.57,.42,1.01,1.04,1.04,1.1,.05,2.19,.08,3.29,.08,3.16,0,6.32-.11,9.47,.04,2.77,.13,5.17-.5,7.03-2.55,.94,.35,.81,1.08,.81,1.73-.03,2.74-.08,5.48-.14,8.22,0,.08-.2,.16-.43,.34-.7-.52-1.41-1.1-2.17-1.61-.8-.54-1.67-.89-2.69-.89-4.94,.02-9.89,.01-14.83,.01-1.04,0-1.45,.56-1.45,1.54,0,3.29-.06,6.59,0,9.88,.08,4.03,1.79,5.79,5.77,5.83,6.32,.06,12.63,.02,18.95,.02,.27,0,.55-.03,.82,0,1.5,.17,2.67-.44,3.61-1.55,.97-1.16,1.91-2.33,2.83-3.53,.73-.96,1.41-1.96,2.23-3.11,.12,.53,.25,.78,.21,.99-.86,4.01-1.74,8.01-2.62,12.02-4.04,1.02-8.15,.39-12.22,.45-8.1,.12-16.2,.04-24.31,.03-1.06,0-2.14,.1-3.2-.2,.08-.46,.04-.76,.18-.91,1.81-1.95,2.21-4.3,2.18-6.86-.07-4.94-.02-9.88-.02-14.83,0-6.18-.07-12.36,.03-18.53,.05-2.73-.45-5.16-2.26-7.26-.14-.16-.08-.49-.12-.78,.51-.6,1.23-.34,1.85-.34,11.12-.02,22.25-.02,33.37-.01,.55,0,1.1,0,1.65,.03,.75,.03,1.33,.34,1.49,1.12,.67,3.22,1.33,6.44,1.99,9.66-.49-.14-.97-.28-1.45-.42Z"/>
    <path d="M849.72,945.82c-13.61,.25-26.83-10.94-26.39-26.21,.36-12.46,9.47-20.91,18.51-23.71,12.43-3.86,26,2.27,31.52,13.78,6.28,13.1-.1,28.73-13.96,34.31-3.22,1.3-6.56,1.96-9.67,1.84Zm20.47-25.33c.29-10.11-8.36-20.3-20.36-20.44-12.32-.14-20.77,10.03-20.97,19.87-.2,9.97,8.05,20.59,20.6,20.7,11.22,.1,20.65-9.11,20.73-20.13Z"/>
    <path d="M783.46,912.42c-1.3,.66-2.51,.17-3.71,.05-1.03-.1-1.68-.59-1.93-1.75-.68-3.15-2.8-5.32-5.42-6.94-6.14-3.81-12.91-4.8-19.8-3.1-12.21,3.01-18.49,17.27-12.84,28.11,4.12,7.9,10.64,12.08,19.61,11.76,8.61-.31,15.6-3.84,20.25-11.38,.14-.23,.3-.46,.42-.7,.34-.63,.72-1.19,1.57-.83,1.06,.45,1.48,1.28,1.06,2.29-2.39,5.78-6.14,10.5-11.86,13.13-9.7,4.46-19.29,4.05-28.04-2.33-8.67-6.32-12.25-15.16-10.02-25.64,2.23-10.44,9.14-17.01,19.45-19.63,7.78-1.98,15.27-.54,22.26,3.3,4.79,2.63,8.04,6.56,9,12.11,.09,.51,.01,1.06,.01,1.57Z"/>
    <path d="M688.53,905.82c.48,.14,.97,.28,1.45,.42,.59,.35,.55,.87,.28,1.36-.13,.24-.4,.12-.6-.18-.36-.54-.75-1.07-1.13-1.61Z"/>
  </g>
  <g>
    <path d="M1029.68,395.59c-7.16-1.94-14.45-3.17-21.8-4.09-1.22-.15-2.47-.23-3.7-.18-2.16,.08-3.61,1.31-4.04,3.41-.19,.93-.19,1.91-.2,2.86-.02,3.02,.02,6.04-.01,9.05-.08,7.55-.51,15.05-1.8,22.52-4.11,23.82-14.08,44.85-29.77,63.18-10.53,12.3-22.98,22.35-36.72,30.84-1.28,.79-2.52,1.64-3.78,2.45-.68-.03-1.13,.35-1.51,.85,0,0-.11,.04-.11,.04-.5-.03-.85,.19-1.05,.64-.25-.04-.45,.05-.6,.25-.47-.06-.77,.14-.92,.57-.68,.02-1.26,.22-1.62,.85-.69,0-1.27,.21-1.64,.84-.69,0-1.28,.19-1.65,.82-.69,0-1.28,.19-1.65,.81-.69,0-1.29,.15-1.67,.79-.9-.03-1.64,.33-2.25,.98l-.13,.04c-.69-.08-1.19,.25-1.61,.74l-.05,.02c-.7-.07-1.27,.17-1.68,.75-.92-.07-1.68,.29-2.33,.92,0,0-.1,.03-.1,.03-.7-.09-1.26,.16-1.69,.72-.93-.08-1.72,.23-2.39,.88,0,0-.05,.01-.05,.01h0c-.73-.08-1.38,.05-1.83,.7-.25-.07-.48-.02-.66,.17-.71-.09-1.31,.1-1.77,.67-.26-.07-.5-.02-.7,.17-.91-.14-1.65,.25-2.34,.78,0,0-.12,.02-.12,.02-.92-.13-1.7,.19-2.4,.77,.22,0,.45,.02,.67,.01-.22,0-.44,0-.67-.01-.8,.17-1.6,.29-2.39,.51-13.38,3.69-27,5.73-40.88,6.01-10.01,.2-19.95-.6-29.83-2.24-2.28-.38-4.51-1.21-6.88-1.03h0c-.49-.22-.96-.53-1.48-.64-17.33-3.77-33.51-10.39-48.71-19.48-.81-.48-1.68-.87-2.52-1.3-.63-.5-1.22-1.06-1.89-1.5-12.15-7.95-23.2-17.16-32.72-28.17-.26-.3-.61-.52-.93-.78-.05-.47-.31-.76-.75-.88-.08-.48-.35-.81-.81-.97-.16-.22-.31-.44-.46-.66,0-.33-.15-.52-.48-.56,0,0-.13-.18-.13-.18-.01-.44-.25-.7-.66-.8-.61-1.29-1.45-2.41-2.53-3.34-.56-.92-1.07-1.88-1.69-2.77-9.43-13.6-16.15-28.42-19.92-44.54-.81-3.45-1.51-6.92-2.27-10.38-.03-.96,.02-1.93-.12-2.87-.9-6.27-1.05-12.58-1.07-18.9-.03-13.32-.02-26.63,0-39.95,0-1.5,.16-3,.24-4.5,1.51-1,3.2-.35,4.8-.54,.27-.03,.55,0,.82-.02,1.92-.16,2.61-.86,2.73-2.86,.04-.68,.02-1.37,.02-2.06,0-7.55-.02-15.1,0-22.65,.01-3.87,.45-5.12-5.14-5.08-11.81,.09-23.62,.02-35.43,.02-.96,0-1.92,.02-2.87,.11-.67,.06-.82,.6-.81,1.19-.06,.81-.16,1.63-.16,2.44,0,14.59,0,29.18,.01,43.77,0,.81,.11,1.63,.17,2.44-.06,.95-.18,1.91-.18,2.86,0,9.58-.03,19.16,.02,28.74,.07,14.03,2.05,27.81,5.84,41.31,1.06,3.79,1.91,7.68,3.85,11.18-.02,1.28,.61,2.37,1.05,3.51,6.09,15.62,14.33,30.02,24.83,43.1,.76,.95,1.64,1.81,2.47,2.71,.56,.76,1.08,1.57,1.69,2.28,11.82,13.63,25.53,25.06,40.65,34.85,.56,.36,1.21,.58,1.82,.87,.41,.34,.79,.73,1.24,1.02,14.43,9.01,29.84,15.87,46.05,20.96,.64,.2,1.34,.19,2.01,.28,.26,.38,.62,.54,1.08,.48,.54,.11,1.09,.21,1.63,.32,.35,.2,.68,.5,1.05,.6,5.17,1.3,10.33,2.67,15.59,3.56,2.83,.48,5.65,1.04,8.49,1.5,1.02,.16,1.39,.71,1.39,1.65,0,1.1,.01,2.19,.01,3.29,0,7.12,.05,14.24-.01,21.36-.08,9.01,6.78,17.9,17.94,18.08,6.85,.11,13.7,.04,20.55,.01,2.78-.01,5.45-.64,7.9-1.95,6.19-3.31,9.6-8.45,9.72-15.52,.12-7.39,.03-14.79,.04-22.19,0-1.1,.05-2.19,.01-3.29-.03-1.06,.73-1.35,1.48-1.67,.39-.76,.8-1.51,1.24-2.24-.44,.73-.85,1.47-1.24,2.24,1.67-.27,3.34-.53,5.01-.8h0c1.02,.15,1.95-.16,2.84-.61,.75,.08,1.47,0,2.16-.34,.73,.14,1.37-.12,1.97-.49,.78,.07,1.54,0,2.22-.44,.66,.16,1.22-.08,1.77-.41h0c.48-.1,.97-.19,1.45-.29,.7,.12,1.3-.16,1.87-.53,.47-.1,.94-.19,1.42-.29,.53,.14,.94-.08,1.29-.46,.76,.04,1.49-.06,2.14-.5,.42,.16,.71-.02,.97-.33,.43-.09,.86-.18,1.3-.28,.59,.13,1.04-.14,1.43-.54,1.66,.05,3.07-.75,4.54-1.34,.39,.15,.67-.04,.9-.33,.52-.16,1.04-.32,1.57-.49,.39,.14,.67-.04,.9-.34,.53-.19,1.07-.37,1.61-.56,.36,.17,.6,0,.81-.28,.65-.18,1.32-.33,1.95-.56,25.29-9.33,47.72-23.31,67.34-41.76,20.38-19.17,35.01-42.05,43.71-68.66,5.64-17.23,7.94-34.95,7.81-53.06-.04-6.44-1.67-6.77-6.13-7.97Zm-220.27,149.84c.28-.36,.59-.68,.91-.93-.33,.26-.63,.57-.91,.93Zm3.24-1.76c-.46,0-.88,.08-1.26,.22,.39-.14,.8-.22,1.26-.22Z"/>
    <path d="M1020.86,346.31c5.77-3.11,11.5-6.29,17.29-9.37,2.26-1.2,3.61-2.75,3.46-5.47-.19-3.41-.16-6.83-.31-10.24-.1-2.18-.29-4.37-.58-6.53-.33-2.47-2.43-3.37-4.53-1.96-.77,.52-1.36,1.3-2.04,1.97-.45,.03-.75,.24-.85,.69-.64,.1-1.07,.49-1.37,1.04,0,0-.19,.13-.19,.13-.43,0-.67,.24-.79,.63-1.83,.91-3.46,2.11-5.02,3.43-.46-.03-.74,.19-.88,.61-.67,.04-1.18,.35-1.53,.92l-.04,.02c-.51,0-.88,.23-1.11,.69-.25-.05-.43,.03-.56,.25-.46-.05-.75,.16-.89,.58-.67,.04-1.24,.27-1.6,.88-.69,0-1.24,.28-1.62,.86-1.78,.56-3.45,1.34-4.95,2.45-.69-.01-1.29,.17-1.69,.78-.72,0-1.38,.15-1.82,.81-.25-.07-.46,0-.62,.2-.67-.08-1.18,.23-1.59,.72-4.3,1.55-8.61,3.08-12.9,4.65-2.38,.87-4.92,1.35-7.15,2.65-.24-.1-.44-.04-.6,.16-.93-.12-1.73,.16-2.41,.79,0,0-.07,.02-.07,.02-.93-.11-1.74,.15-2.42,.8,0,0-.05,.01-.05,.01-.97-.02-1.93,0-2.71,.71-.8,.14-1.63,.19-2.4,.45-10.1,3.35-20.22,6.66-30.28,10.14-3.72,1.29-7.55,2.32-11.03,4.23-.23-.1-.42-.05-.56,.16-.72-.07-1.34,.09-1.79,.7-.27-.09-.5-.03-.69,.19-.68-.09-1.22,.14-1.64,.68,0,0-.01-.01-.01-.01-.94-.07-1.74,.21-2.4,.88h-.05c-.73-.06-1.36,.12-1.81,.74-.26-.07-.48-.01-.66,.18-.69-.1-1.21,.2-1.64,.71-.64,.2-1.31,.35-1.92,.61-7.95,3.43-15.17,8.05-21.78,13.61-3.85,3.24-7.74,6.46-10.81,10.51,0,0-.1,.11-.1,.11-.41,.06-.63,.29-.66,.7,0,0-.15,.17-.15,.17-.38,.05-.59,.27-.62,.66,0,0-.21,.24-.21,.24-.31,.02-.46,.18-.46,.49-1.16,.94-2.18,2.01-2.88,3.35-.81,.52-1.63,.46-2.48,.1-.54-1.2,.2-2.09,.71-3.05,3.36-6.28,6.69-12.58,10.07-18.85,3.85-7.13,8.2-13.93,12.96-20.48,7.9-10.89,16.47-21.23,25.39-31.29,4.07-4.59,8.88-8.12,14.48-10.61,1.88-.83,3.76-1.65,5.64-2.48h0c7.52-2.22,15.09-4.24,22.72-6.08,2.35-.56,4.8-.76,6.99-1.91,2.78-.02,5.35-1.07,7.98-1.74,8.78-2.23,17.27-5.21,25.15-9.75,5.62-3.23,10.66-7.16,15.17-11.82,1.51-1.56,1.95-3.1,1.07-5.16-1.98-4.65-3.83-9.36-5.75-14.04-.26-.63-.58-1.25-.97-1.8-.84-1.17-2.47-1.48-3.63-.6-.87,.65-1.62,1.47-2.38,2.26-2.56,2.66-5.06,5.39-7.66,8.01-3.7,3.74-7.95,6.65-12.93,8.49-1.77,.66-3.68,1.06-5.25,2.23h-.14c-.93-.11-1.7,.24-2.38,.83,0,0-.09,.02-.09,.02-.93-.13-1.71,.21-2.4,.8,0,0-.07,.02-.07,.02-.93-.12-1.73,.17-2.43,.78-.29,.05-.58,.1-.87,.16-.68-.11-1.22,.13-1.68,.62,0,0,0,0,0,0-1.16-.07-2.25,.14-3.19,.88-.3,.05-.6,.1-.91,.15-.68-.12-1.23,.1-1.69,.6-1.16-.06-2.26,.12-3.2,.88-3.94,.79-7.85,1.71-11.58,3.27,0,0-.05,.01-.05,.01-.95-.06-1.87,.01-2.59,.76-.26-.11-.49-.06-.69,.14-.27-.01-.54-.03-.82-.04,0,0-.1-.04-.1-.04-.25-.23-.5-.45-.76-.68-.32-1.18,.32-2.09,.82-3.07,9.46-18.68,16.63-38.12,19.42-58.98,.65-4.87,1.5-9.75,1.14-14.71,.61-6.28,.5-12.57-.22-18.82-.63-5.42-1.67-10.8-4.04-15.81,.07-.48-.11-.84-.52-1.09,0-.86-.22-1.62-.92-2.18-2.43-6.63-6.43-12.24-11.19-17.37,.03-.29-.11-.44-.4-.46,0,0-.21-.25-.21-.25-.03-.38-.23-.59-.61-.65,0,0-.15-.18-.15-.18-.03-.42-.26-.65-.67-.71,0,0-.11-.12-.11-.12-.04-.44-.28-.68-.71-.74,0,0-.08-.09-.08-.09-.05-.44-.3-.69-.74-.75,0,0-.08-.08-.08-.08-.06-.44-.3-.69-.74-.74,0,0-.08-.08-.08-.08-.43-.52-.8-1.1-1.29-1.56-6.78-6.31-14.38-11.42-22.81-15.28-.61-.28-1.29-.41-1.94-.6-8.64-4.32-17.88-6.33-27.44-7.11-3-.14-5.99-.39-8.99-.4-18.16-.04-36.33-.02-54.49-.01-1.36,0-2.72,.13-4.08,.2-.67-.06-1.35-.18-2.02-.18-8.28-.02-16.55-.02-24.83-.01-.67,0-1.34,.13-2.01,.21-2.45-.31-4.9-.31-7.35,0-3.42-.14-6.84-.36-10.17,.76-4.75,.07-9.27,1.28-13.74,2.76-7.91,1.99-15.2,5.42-22.03,9.78-17.43,11.11-29.47,26.38-35.25,46.37-3.09,10.69-3.1,21.63-2.6,32.61-.07,1.35-.18,2.7-.19,4.05-.01,8.28,0,16.55,.01,24.83,0,1.35,.12,2.7,.18,4.05-.07,1.35-.19,2.7-.19,4.05-.02,7.33-.01,14.65,0,21.98,0,1.49,.12,2.97,.18,4.46-.06,4.06-.18,8.12-.18,12.17,0,5.28,.12,10.55,.18,15.83-.07,1.09-.19,2.17-.19,3.26-.01,21.99-.01,43.99,0,65.98,0,1.09,.12,2.17,.19,3.26h0c-.06,1.36-.18,2.73-.18,4.09-.02,8.62,.04,17.25-.03,25.87-.05,7,.48,13.96,1.67,20.84,.69,4.02,1.27,8.1,2.91,11.9,.19,.93,.31,1.89,.59,2.79,3.97,12.75,9.92,24.51,17.85,35.26,.4,.54,.93,.97,1.39,1.46,.38-.01,.73-.08,1.05-.19,.32-.11,.61-.27,.87-.46-.27,.19-.56,.35-.87,.46-.32,.11-.67,.18-1.05,.19,.39,1.22,1.33,2.06,2.1,3.02,5.9,7.28,12.63,13.73,20.02,19.48,1.39,1.08,2.64,2.41,4.36,3.02,2.57,2.33,5.42,4.25,8.54,5.76,.07,.32,.25,.48,.58,.44,.13,.25,.34,.37,.62,.37,0,0-.13,.01-.13,.01,7.29,4.64,15.11,8.21,23.15,11.33,.37,.14,.8,.11,1.21,.17,2.32,1.34,4.87,2.02,7.48,2.49,.38,.42,.82,.67,1.41,.54,.42,.09,.85,.17,1.27,.26,.28,.32,.61,.5,1.05,.36,.65,.42,1.37,.52,2.12,.47,.34,.36,.73,.56,1.24,.41,.83,.45,1.72,.54,2.64,.46,2.99,1.35,6.25,1.55,9.41,2.01,3.98,.59,7.97,1.45,12.05,1.13,9.37,.81,18.71,.54,28.01-.92,4.39-.31,8.67-1.25,12.93-2.28,8-1.93,15.88-4.25,23.32-7.85,.39-.12,.81-.2,1.18-.36,20.51-9.22,38.08-22.32,51.92-40.12,12.83-16.51,20.53-35.24,23.25-55.96,.66-5.01,1.36-10.07,.77-15.17h0c.07-1.35,.19-2.71,.19-4.06,.02-9.66,0-19.32,.02-28.99,0-1.63,.1-3.26,.15-4.89,6-.1,11.99-.2,17.99-.3,1.4,.36,2.82,.37,4.25,.22,.06-.82,.32-1.54,.68-2.21-.36,.67-.61,1.39-.68,2.21,3.94,.48,7.88,.93,11.81,1.44,6.11,.79,12.1,2.2,18.06,3.76,3.33,.87,5.38-.34,6.07-3.64,.76-3.61,1.35-7.27,1.81-10.93,.38-3-.87-4.66-3.82-5.33-2.8-.63-5.65-1.04-8.46-1.65-3.87-.84-7.84-1.19-11.63-2.42,.19-.2,.27-.44,.23-.71,1.77-.4,3.2-1.5,4.75-2.33Zm-217.45,36.1s-.13-.11-.13-.11c-.06-.4-.29-.62-.7-.65,0,0-.19-.17-.19-.17-.03-.34-.2-.53-.55-.52-.34-.58-.78-1.05-1.45-1.25-7.89-8.06-17.12-14.16-27.45-18.64-.27-.09-.53-.18-.8-.27-.15-.35-.4-.56-.81-.5-4.72-2.17-9.43-4.34-14.15-6.5-1.62-.74-3.22-1.51-4.86-2.19-1.47-.6-1.96-1.63-1.94-3.18,.06-5.47,.03-10.95,.01-16.42,0-1.09-.08-2.19-.12-3.28h0c.05-6.44,.1-12.87,.14-19.31,.02-2.74,0-5.48,0-8.22,0-.65,.03-1.29,.48-2.22,2.88,2.99,4.48,6.52,7.21,9.14,.07-.26,.11-.55,.17-.82-.06,.27-.09,.57-.17,.82,.84,1.24,1.6,2.53,2.53,3.7,4.59,5.79,9.2,11.57,13.84,17.32,1.28,1.59,2.35,3.37,4.03,4.61,.94-.03,1.67-.38,2.29-.88-.62,.5-1.36,.85-2.29,.88,.79,1.09,1.53,2.23,2.39,3.28,7.34,8.95,14.14,18.27,19.96,28.3,.27,.46,.65,.85,.97,1.27,.57,1.22,1.1,2.47,1.73,3.67,2.85,5.43,5.45,10.96,7.51,16.74,.19,.54,.79,1.12-.08,1.81-2.27-1.89-4.55-3.8-6.83-5.7-.07-.42-.31-.66-.74-.69Zm-43.33-136.05c5.95,2.78,12.09,5.06,18.39,6.92,4.71,1.38,9.36,2.97,14.24,3.68-.13-1.61,.49-2.9,1.3-4.08-.81,1.18-1.44,2.47-1.3,4.08,1.03,.31,2.06,.66,3.11,.93,8.26,2.08,16.73,3.38,24.64,6.73,.78,.54,1.55,1.1,2.34,1.62,6.04,3.93,9.9,9.37,11.35,16.46,.33,1.61,.6,3.23,.9,4.84-.14,3.26-.07,6.55-.47,9.79-1.1,8.92-2.42,17.81-3.61,26.71-.61,4.58-1.14,9.17-1.71,13.76-.68,4.73-1.27,9.47-2.06,14.18-.79,4.79-1.04,9.68-2.35,15.1-.83-1.51-1.34-2.41-1.82-3.33-2.28-4.34-4.34-8.81-7.32-12.76-.35-1.36-1.27-2.4-2.01-3.54-4.86-7.47-10.26-14.55-15.87-21.46-1.55-1.91-3.2-3.73-4.8-5.59-.3-.03-.59-.03-.87-.02,.28-.01,.57,0,.87,.02-.71-.99-1.38-2.01-2.14-2.96-3.68-4.56-7.41-9.07-11.06-13.65-2.97-3.72-5.85-7.52-8.77-11.28-.8-1.26-1.57-2.56-2.42-3.79-7.08-10.29-13.38-21.01-18.38-32.48,.08-4.7,.16-9.4,.24-14.27,2.71,.28,4.38,2.44,6.78,2.81h0c.73,.88,1.83,1.15,2.8,1.61Zm113.71,70.39s-.09-.03-.13-.04c.04,.01,.09,.02,.13,.04Zm-.23-.07c-.16-.01-.33,.05-.52,.2,.19-.16,.36-.21,.52-.2Zm-11.78,69.79c.06-.07,.1-.17,.12-.29-.02,.11-.05,.22-.12,.29Zm-11.07-75.77c-.13,.02-.25,.04-.37,.08,.12-.03,.25-.06,.37-.08Zm87.65-42.28c-5.19,9.56-11.29,18.5-18.01,27.03-6.88,8.73-13.82,17.42-20.77,26.1-9.37,11.72-17.45,24.28-24.34,37.6-3.53,6.82-7.18,13.58-10.71,20.4-1,1.94-1.74,4.01-2.6,6.02-.27,.01-.54,.03-.82,.04h0c-.4-3.04-.8-6.08-1.2-9.13,.05-.54,.17-1.09,.15-1.63-.32-9.55,1.5-18.76,4.52-27.75,2.95-8.8,6.04-17.55,9.08-26.32,.36-1.03,.86-2.01,.87-3.14,0,0,0,0,0,0,1.7-3.41,2.91-7,3.88-10.68l.18-.11s-.14-.03-.14-.04c.52-.67,.77-1.42,.79-2.26l.2-.12s-.13-.15-.13-.15c.54-.62,.75-1.35,.76-2.16l.22-.15s-.11-.21-.11-.21c.54-.58,.72-1.3,.71-2.07l.23-.17s-.1-.25-.1-.25c1.16-2.2,1.89-4.55,2.36-6.98l.24-.18s-.1-.26-.1-.26c.49-1.27,1.05-2.51,1.46-3.8,3.3-10.43,6.31-20.95,9.16-31.52,.68-2.51,1.37-5.01,2.45-7.39,1.63-3.56,4.24-6,8.06-7.04,1.45-.39,2.91-.72,4.37-1.08h0c.64,.16,1.22,.06,1.73-.39,1.35,.1,2.69,.02,4-.38,.72,.14,1.39,.06,1.95-.45,1.58,.13,3.13,0,4.66-.42,.68,.16,1.3,.04,1.84-.41,0,0,.29,.12,.29,.12,0,0,.26-.17,.26-.17,1.79,.14,3.54-.12,5.3-.39,1.21-.19,2.44-.32,3.66-.46,5.02-.56,9.16,2.57,10.6,6.68,.18,.51,.35,1.03,.52,1.55-.05,4.12-.24,8.23-1.37,12.23-.98,3.44-2.37,6.71-4.08,9.86Zm-2.24-48.39c.32-.51,.57-1.07,.69-1.67-.12,.6-.37,1.16-.69,1.67Zm-33.53-68.4c1.09,.05,2.17,.16,3.25,.29,1.48,.18,2.96,.42,4.44,.63,.24-.1,.45-.23,.63-.39-.18,.16-.38,.29-.63,.39,.64,.61,1.43,.68,2.26,.64,.31,.29,.64,.47,1.08,.31-.36-.1-.72-.21-1.08-.31h0c.36,.1,.72,.21,1.08,.31,1,.4,1.99,.85,3.01,1.19,6.37,2.13,12.18,5.3,17.4,9.53,.62,.51,1.31,.94,1.97,1.4,.33,.43,.62,.9,1,1.27,6.17,6.08,10.27,13.35,12.48,21.71,.24,.92,.58,1.81,.88,2.72h0c.42,3.38,.91,6.75,1.25,10.14,.15,1.48,.21,3.03-.06,4.49-.92,5.03-3.93,8.28-8.83,9.73-1.94,.57-4.01,.73-5.82,1.74h0c-3.06,.34-6.08,.94-9.04,1.81-1.23-.1-2.44-.08-3.52,.66-.21-.16-.4-.14-.58,.06-2.31-.02-4.63-.13-6.84,.76-.2-.18-.4-.17-.58,.03-1.64,.02-3.28,.01-4.91,.07-1.64,.06-3.28,.17-4.92,.27-1.58,.1-3.17,.57-4.67,.21-.59-1.61-.36-2.99-.36-4.34-.02-10.26,0-20.53-.02-30.79,0-1.36-.11-2.73-.17-4.09,.06-2.04,.17-4.08,.18-6.12,.02-6.69,0-13.37,0-20.06,0-1.09,0-2.18,.07-3.27,.04-.6,.42-1.01,1.05-.98Zm-86.78-.95c-.04-.57,.03-1.08,.19-1.58-.16,.49-.23,1.01-.19,1.58,1.09,.05,2.19,.15,3.28,.15,18.13,0,36.26,.01,54.38,0,1.09,0,2.19-.1,3.28-.15,.68,.06,1.36,.13,2.03,.17,.79,.05,1.26,.46,1.36,1.23,.5,3.65,1.06,7.29,1.46,10.95,1.19,11.01,1.31,22.06,1,33.11-.08,2.72-.09,5.45-.14,8.17-.59,1.29-.51,2.68-.64,4.04-.37,3.68-.63,7.38-1.13,11.05-2.31,17.01-6,33.72-10.99,50.14-1.91,6.29-3.93,12.54-5.9,18.81-1.14,2.6-2.18,5.24-2.81,8.02-.41,.21-.56,.54-.47,.99-1.37,3.21-2.75,6.43-3.6,9.83-.36,.18-.54,.45-.44,.87-.14,.48-.28,.96-.42,1.44-.4,.24-.57,.59-.5,1.05-.55,1-1.13,2-1.13,3.2-.37,.19-.55,.48-.45,.9-.38,.83-.76,1.67-1.14,2.5-.63,.05-1.26,.09-1.89,.14-.05,.07-.08,.15-.1,.21-.03,.14,0,.26,.1,.34-.1-.08-.13-.2-.1-.34,.02-.07,.05-.14,.1-.21,.26-2.2,.52-4.41,.79-6.61h0c.39-2.15,.81-4.3,1.16-6.46,1.2-7.32,1.73-14.71,2.06-22.11,.25-5.61,.59-11.24-.42-16.83-.14,0-.28-.01-.42,0,.14,0,.28,0,.42,0,.03-.81,.1-1.62,.07-2.43-.24-6.12-1.07-12.18-2.15-18.2-1.06-5.87-2.14-11.75-4.19-17.38-.3-1.19-.55-2.39-.91-3.57-2.31-7.6-5.25-14.95-8.67-22.11-.64-1.34-1.05-2.82-2.17-3.9-.18-1.41-1.04-2.52-1.68-3.72-5.5-10.31-12.01-19.96-19.32-29.06-1.71-2.13-3.27-4.39-5.41-6.15-1.64-2.75-4.24-4.75-6.47-7.78,4.44-.11,8.3-.2,12.15-.29Zm-34.6,5.82c.99-.73,1.8-1.62,2.53-2.59-.73,.97-1.54,1.86-2.53,2.59,.67,.84,1.31,1.71,2.03,2.51,3.87,4.38,7.76,8.76,11.66,13.12,.81,.91,1.68,1.76,2.52,2.63h0c.54,.78,1.03,1.59,1.63,2.32,8.81,10.78,16.76,22.14,23.05,34.59,.18,.36,.45,.68,.68,1.01,1.43-.62,2.3-1.75,3.09-2.94-.78,1.2-1.66,2.33-3.09,2.94,.59,1.37,1.16,2.75,1.77,4.11,2.99,6.71,5.53,13.57,7.29,20.71,.45,1.84,.94,3.68,1.4,5.51-.24,1.21,.48,2.46-.13,3.66-4.49-1.11-8.97-2.31-13.48-3.31-4.24-.94-8.36-2.44-12.72-2.88-.49-.23-.95-.55-1.47-.67-13.28-3.33-26.61-6.52-39.08-12.43-4.52-2.81-8.97-5.71-13.21-8.93l-.13-.1c-.08-.38-.3-.61-.7-.63-1.43-1.38-2.02-2.97-1.97-5.04,.12-5.26-.04-10.53-.08-15.79h0c.26-2.17,.38-4.37,.8-6.51,2.86-14.43,10.9-25.17,23.44-32.66,1.41-.84,2.88-1.57,4.33-2.35,0,0,.28,.03,.28,.03l.23-.16c.62,.43,1.24,.85,1.86,1.28Zm7.71,321.75c-.66-.46-1.39-.84-2.08-1.25-.08-.36-.28-.57-.67-.55,.22,.18,.45,.36,.67,.55,0,0,0,0,0,0-.22-.18-.45-.36-.67-.55-.25-.17-.5-.33-.75-.5-.14,.14-.27,.33-.41,.49,.14-.16,.27-.35,.41-.49-.58-.56-1.12-1.17-1.75-1.67-8.52-6.75-15.64-14.72-21.27-24.03-.27-.45-.65-.85-.98-1.27-.38-.87-.71-1.76-1.15-2.6-6.54-12.48-9.94-25.74-9.89-39.86,.01-3.15-.08-6.3-.12-9.45h0c.05-6.15,.12-12.3,.13-18.45,0-4.36,.07-3.79,3.75-2.56,1.28,.43,2.45,1.24,3.86,1.26,.91-.02,1.56-.39,2.1-1-.54,.61-1.19,.98-2.1,1,.58,.33,1.13,.72,1.74,.99,9.89,4.37,18.97,10,27.01,17.25,.29,.26,.67,.43,1.01,.64,.02-.14,0-.29,.05-.41-.06,.11-.04,.27-.05,.41,.43,.52,.81,1.08,1.29,1.54,5.28,5.13,9.86,10.82,13.77,17.05,.35,.56,.83,1.05,1.25,1.57,.87,1.67,1.74,3.35,2.61,5.02,0,0,.04-.13,.04-.13-.02,.25,.08,.43,.29,.55-.06,.51,.18,.86,.61,1.11-.07,.24,0,.42,.23,.54-.07,.5,.16,.84,.58,1.07,.24,.6,.48,1.21,.73,1.81,0,0,.04-.13,.04-.13,.27,.58,.54,1.15,.81,1.73-.03-.03-.08-.08-.08-.08l.09,.1s.02,.01,.02,.01c.12,1.11,.67,2.06,1.21,3-.11,.33,.04,.53,.35,.63,.52,2.33,1.34,4.55,2.46,6.66-.03,1.69,.76,3.18,1.21,4.74,2.53,8.71,3.69,17.62,3.85,26.67,.09,5.19,0,10.38,.03,15.57,0,1.36,.11,2.72,.17,4.08h0c-.08,.75-.16,1.5-.23,2.25-.05,.55-.34,.92-.86,1.11,.05,.6-.01,1.16-.16,1.69,.15-.53,.21-1.09,.16-1.69l-.31-.18-.36,.05h0c-.46-.57-1.08-.73-1.78-.64-.62-.29-1.21-.63-1.85-.85-8.95-3.1-17.26-7.43-25.04-12.83Zm27.26,14.05c.15,.11,.32,.17,.49,.22-.17-.04-.34-.11-.49-.22Zm73.77-5.21c-.86,.4-1.65,.94-2.47,1.41-2.56,.9-5.11,1.81-7.68,2.69-1.27,.43-2.56,.81-3.71,1.16-1.02-.7-.74-1.57-.75-2.32-.03-3.82,0-7.64-.02-11.45,0-1.36-.13-2.71-.19-4.07,.43-4.48,.2-8.98,.59-13.47,.79-9.03,2.69-17.77,5.8-26.26,.37-1.01,.63-2.07,.95-3.1,.55-1.09,1.15-2.17,1.65-3.29,7.33-16.21,18.22-29.51,32.6-39.97,.99-.72,1.96-1.49,2.93-2.24-.09-.96,.14-1.82,.5-2.62,.18-.4,.39-.79,.61-1.18-.22,.39-.43,.78-.61,1.18-.36,.81-.59,1.66-.5,2.62,2.97-1.69,5.91-3.43,8.91-5.06,4.22-2.3,8.61-4.2,13.14-5.81,.5-.18,1.03-.25,1.47-.36,.89,.92,.59,1.92,.6,2.83,.03,6.58,0,13.17,.03,19.75,0,1.77,.17,3.55,.26,5.32h0c-.46,1.19-.26,2.44-.28,3.67-.3,27.21-11.22,49.33-32,66.71-6.66,5.57-13.94,10.19-21.82,13.86Z"/>
  </g>
</svg>