<?xml version="1.0" encoding="UTF-8"?>
<svg id="Layer_1" data-name="Layer 1" xmlns="http://www.w3.org/2000/svg" viewBox="0 0 1700 1100">
  <defs>
    <style>
      .cls-1 {
        fill: #020000;
      }

      .cls-2 {
        fill: #fff;
      }
    </style>
  </defs>
  <path class="cls-2" d="M367.46,893.2c-17.15,0-27.37-7.5-32.92-13.79-13.34-14.42-13.01-28.6-10.49-138.96,1.85-80.84,4.12-109.41,7.82-123.09-6.56-2.18-12.23-5.67-16.91-10.45-12.4-12.22-15.6-27.19-17.91-84.22-1.49-36.66-1.73-73.69-.71-110.05,1.21-43.19,2.17-77.3,29.42-90.49l3.12-1.51,3.34-.94c5.11-1.45,16.7-4.47,58.03-13.96,30.23-6.94,62.13-13.76,94.79-20.29,38.26-7.63,52.3-8.61,60.26-8.61,5.6,0,10.29,.55,14.78,1.72l1.9,.5,1.84,.68c.92,.34,1.83,.72,2.75,1.15,9.44-4.25,21.83-7.65,39.36-10.81,12.95-2.33,22.63-3.42,30.46-3.42,2.33,0,7.18,0,13.02,1.24,4.13-3.31,8.85-5.8,14.08-7.42,8.61-2.57,96.52-22.72,124.46-28.39,41.15-8.35,50.26-9.05,56.05-9.05,3.12,0,6.04,.28,8.88,.84,10.41-5.74,30.55-12.78,89.83-23.94,50.38-9.48,68.53-10.58,77.81-10.58,3.68,0,6.97,.19,10.03,.59,.1,.01,.19,.03,.29,.04,4.65-7.58,11.24-13.04,19.66-16.26,3.38-1.31,7.96-2.79,14.83-4.8,6.51-1.9,13.47-3.63,20.67-5.15,7.99-1.68,15.7-2.8,22.9-3.31l.44-.03c1.11-.07,2.22-.11,3.33-.11,4.07,0,8.12,.51,12.11,1.5,.93-.72,1.89-1.41,2.89-2.06l3.91-2.56,4.4-1.57c4.36-1.56,11.53-3.68,46.33-10.88,35.95-7.44,42.81-8.07,48.05-8.11l2.45-.02,2.44,.29c8.67,1.01,17.49,4.35,28.01,10.66,4.28-3.94,9.46-6.8,15.68-8.69l1.14-.35,1.18-.28c113.82-27.07,141.59-30.8,154.64-30.8,27.16,0,37.51,18.68,40.04,24.41l.55,1.24,.46,1.29c2.22,6.15,4.47,15.22,5.96,39.71,1.36,22.55,.5,32.55-1.29,39.88,2.87,8.79,4.06,19.98,4.06,37.54,0,15.41-.94,26.42-3.04,35,.91,1.72,1.7,3.49,2.36,5.29,2.8,7.74,4.34,17.27,5.05,47.92,.71,31.11,.05,41.7-5.63,51.96-8.91,17.46-25.83,21.24-47.25,26.02-13.92,3.11-34.75,7.26-61.9,12.32-78.44,14.64-87.36,14.64-92.69,14.64-2.75,0-5.31-.21-7.81-.63l-1.36-.23-1.36-.33c-4.22-1.03-8.11-2.63-11.62-4.77-.1,.05-.2,.1-.3,.15-4.6,2.37-10.46,4.67-37.2,10.48,5.78,4.87,10.41,11.15,13.3,18.39,1.06,2.67,1.95,5.43,2.71,8.47,1.68,6.77,2.53,14.19,2.53,22.07,0,5.76-.27,11.95-.8,18.42-.59,7.06-1.57,13.82-2.91,20.11-.28,1.31-.57,2.59-.86,3.83,8.95,11.76,11.39,27.71,12.91,54.85,1.17,21.01,1.53,42.23,1.07,63.07-.39,17.21-1.15,28.22-2.46,35.71-2.95,16.81-14.85,30.64-31.06,36.09-30.13,10.13-190.6,44.05-208.79,47.88-64.19,13.51-83,15.33-92.93,15.33-2.19,0-5.28-.08-8.94-.67-11.85,6.3-27,9.98-42.79,13.46-24.52,5.41-49.81,9.89-75.17,13.29-19.99,2.68-33.44,3.92-42.33,3.92-4.38,0-8.2-.31-11.75-.97-9.9,6.23-23.64,10.53-44.86,14.13-16.76,2.84-28.34,4.16-36.44,4.16-2.97,0-5.72-.17-8.35-.53-7.4,2.5-22.92,6.39-67.36,15.99-39.56,8.54-80.41,16.75-109.28,21.97-72.56,13.11-91.73,14.88-100.9,14.88h0Z"/>
  <path class="cls-1" d="M1475.95,334.64c-.67-29.42-2.13-38.65-4.58-45.45-.65-1.8-1.72-4.23-3.41-6.83,2.53-8.33,3.62-19.48,3.62-36.11,0-17.98-1.27-28.97-4.42-37.24l.14-.43,.19-.72c1.79-6.73,2.71-15.86,1.34-38.57-1.43-23.52-3.49-31.95-5.52-37.55l-.37-1.03-.44-1c-2.62-5.95-11.09-19.78-32.94-19.78-11.98,0-39.51,3.64-152.85,30.59l-.94,.22-.92,.28c-7.43,2.25-12.7,6.07-16.55,11.31-.04-.03-.08-.05-.12-.08-11.99-7.9-21.29-11.89-30.18-12.92l-1.96-.23-1.97,.02c-4.64,.04-11.35,.66-46.55,7.95-34.31,7.1-41.37,9.19-45.29,10.59l-3.53,1.26-3.14,2.05c-1.98,1.29-3.72,2.7-5.26,4.21-4.4-1.53-9.09-2.39-13.98-2.39-.93,0-1.87,.03-2.81,.09l-.4,.03c-6.86,.49-14.2,1.56-21.86,3.17-7.01,1.48-13.77,3.16-20.1,5-6.65,1.94-11.05,3.36-14.23,4.59-9.6,3.68-15.05,10.4-18.27,17.8-1.78-.5-3.6-.88-5.46-1.13-2.72-.36-5.68-.53-9.03-.53-8.96,0-26.63,1.08-76.37,10.44-59.93,11.28-79.97,18.28-89.96,24.55l-2.1-.47c-2.57-.57-5.21-.85-8.09-.85-5.16,0-14.06,.69-54.51,8.9-27.84,5.65-115.26,25.67-123.41,28.11l-.3,.09c-5.56,1.72-10.33,4.58-14.3,8.54-6.61-2.02-12.5-2.02-15.09-2.02-7.36,0-16.6,1.05-29.09,3.3-18.9,3.42-31.69,7.09-40.87,11.86-1.65-.96-3.39-1.84-5.31-2.56l-1.48-.55-1.53-.4c-3.83-1-7.9-1.47-12.81-1.47-7.6,0-21.15,.96-58.75,8.46-32.55,6.5-64.37,13.31-94.58,20.24-41.16,9.45-52.62,12.44-57.66,13.86l-2.68,.76-2.51,1.21c-21.94,10.62-23.75,37.37-25.05,83.73-1.01,36.18-.78,73.03,.71,109.52,2.3,56.7,5.64,69.2,15.7,79.11,6.85,6.98,15.17,9.46,21.9,10.35-5.45,9.41-8.32,28.9-10.6,128.8-2.45,107.26-2.78,121.41,8.55,133.66,5.02,5.69,13.41,11.17,27.11,11.16,8.32,0,27.15-1.68,99.53-14.75,28.81-5.2,69.56-13.4,109.02-21.92,47.29-10.21,61.94-13.99,68.25-16.37,2.76,.49,5.74,.74,9.1,.74h0c7.65,0,18.82-1.29,35.15-4.05,21.95-3.72,35.4-8.1,44.58-14.78,3.86,1.02,8.02,1.51,13.32,1.51,8.54,0,21.66-1.23,41.3-3.85,25.14-3.37,50.21-7.8,74.52-13.17,17.52-3.87,32.33-7.64,43.14-14.04,4.54,1.02,8.36,1.06,10.23,1.06h.03c8.98,0,27.47-1.72,91.33-15.17,7.23-1.52,177.43-37.39,207.92-47.64,13.51-4.54,23.44-16.07,25.9-30.08,1.25-7.09,1.97-17.74,2.35-34.54,.46-20.65,.1-41.66-1.06-62.46-1.58-28.16-3.99-42.97-13.66-53.34,.63-2.33,1.21-4.78,1.77-7.4,1.27-5.98,2.2-12.41,2.76-19.13,.51-6.24,.77-12.22,.77-17.78,0-7.26-.77-14.02-2.3-20.18-.68-2.71-1.46-5.15-2.39-7.48-5.16-12.92-16.82-22.09-30.49-24.09,1.11-.22,2.18-.44,3.35-.68,41.18-8.42,49.5-11.19,54.81-13.93,1.45-.72,2.82-1.53,4.14-2.42,3.39,2.83,7.64,5.14,13.06,6.46l1.08,.26,1.1,.19c2.06,.35,4.19,.52,6.51,.52,4.73,0,13.53,0,91.27-14.51,27-5.04,47.73-9.17,61.63-12.27,20.71-4.62,34.78-7.76,42.16-22.21,4.61-8.31,5.36-17.48,4.66-48.02Zm-895.46,318.07c.02,.19,.05,.37,.06,.56h-.02c0-.19-.03-.37-.04-.56Zm471.48-190.16c.05,.02,.11,.04,.17,.06-.12,.03-.24,.06-.36,.09,.06-.05,.13-.1,.19-.15Z"/>
  <path class="cls-2" d="M316.41,335.06c7.37-2.08,26.09-6.57,56.15-13.47,30.05-6.9,61.28-13.58,93.69-20.05,32.4-6.46,51.51-8.94,57.32-7.42,3.13,1.16,5.64,13.02,7.55,35.58,1.9,22.57,3.03,47.32,3.37,74.26,.34,26.94,.35,51.97,.02,75.07-.33,23.1-1.05,35.98-2.17,38.61-.89,3.04-18.77,8.36-53.63,15.96-34.86,7.61-70.01,14.05-105.42,19.34-35.42,5.29-54.36,6.51-56.82,3.68-2.91-2.75-5.09-22.11-6.55-58.1-1.46-35.98-1.69-71.77-.7-107.35,1-35.58,3.39-54.28,7.19-56.12Zm61.72,166.35c.45,1.9,2.18,2.84,5.2,2.8,3.02-.03,5.98-1.04,8.88-3.04,2.9-1.99,4.36-4.42,4.36-7.29,0-.22,.05-3.2,.17-8.96,.11-5.75,.16-11.99,.16-18.72,0-6.72,0-14.66,0-23.81,0-9.15-.06-17.96-.17-26.42-.12-8.46-.29-16.65-.51-24.54-.23-7.89-.51-14.62-.84-20.18s-.84-9.26-1.51-11.12c-1.12-3.75-2.35-5.72-3.69-5.9-3.8-.81-7.71,.22-11.73,3.09-4.02,2.87-6.03,6.29-6.03,10.26l5.73,133.82Z"/>
  <path class="cls-2" d="M644.96,326.07c-1.54-.46-2.57-4.69-3.11-12.7-.54-8-.19-16.1,1.03-24.3,1.23-8.19,3.14-12.69,5.76-13.5,5.68-1.7,90.61-21.32,120.64-27.42,30.03-6.09,46.51-8.82,49.43-8.17,.92,1.34,1.96,9.02,3.12,23.04,1.16,14.03,1.35,22.4,.58,25.12-.31,1.42-2.69,2.68-7.14,3.76-4.46,1.09-8.72,1.8-12.79,2.13-4.07,.33-6.95,.89-8.64,1.67-.92,.48-1.07,5.93-.46,16.34,.61,10.42,1.46,21.77,2.54,34.07,1.08,12.3,1.93,23.88,2.54,34.75,.62,10.87,.62,16.82,0,17.85-1.38,2.09-9.41,5-24.08,8.74-14.67,3.74-23.47,5.36-26.38,4.86-1.69-.13-2.54-9.17-2.54-27.13,0-17.96,.34-34.81,1.02-50.56,.69-15.74,.57-25.42-.35-29.03-.77-1.36-73.21,14.9-83.2,17.36-9.99,2.46-15.98,3.5-17.97,3.12Z"/>
  <path class="cls-2" d="M998.92,206.48c2.62,.34,4.81,2.1,5.78,4.55,.39,.98,.75,2.12,1.08,3.44,.89,3.58,1.34,7.74,1.34,12.47,0,4.74-.22,9.8-.67,15.18-.45,5.38-1.17,10.43-2.18,15.14-1,4.71-2.12,8.73-3.35,12.06-.54,1.45-1.08,2.65-1.64,3.6-.83,1.42-2.2,2.44-3.75,2.98-6.16,2.12-13.41,3.93-21.76,5.44-9.05,1.64-20.78,3.51-35.2,5.63-14.42,2.12-22.29,3.31-23.63,3.56-3.13,.6-5.53,2.45-7.21,5.52-1.68,3.08-2.18,6.1-1.51,9.06,0,.03,.01,.06,.02,.09,.85,3.61,4.51,5.81,8.17,5.24,3.12-.49,8.1-1.55,14.94-3.17,10.06-2.38,20.62-5.08,31.68-8.09,11.06-3.01,21.56-5.32,31.51-6.9,9.94-1.59,15.81-1.45,17.6,.41,2.46,2.39,4.25,13.62,5.37,33.69,1.12,20.07,1.46,40.06,1.02,59.99-.33,14.74-.96,24.71-1.9,29.92-.45,2.52-2.21,4.59-4.61,5.49-20.96,7.81-129.65,34.05-180.76,44.81-56.2,11.83-85.98,16.42-89.33,13.76-3.58-1.96-5.15-9.37-4.7-22.24,.44-12.87,2.68-22.56,6.7-29.07,1.79-2.77,9.16-6.23,22.12-10.38,12.96-4.15,26.42-7.79,40.39-10.93,13.96-3.13,28.32-6.23,43.07-9.3,14.75-3.06,119.63-27.43,121.42-27.99,2.68-.73,4.97-1.78,6.87-3.14,1.9-1.36,3.24-2.72,4.02-4.08,.78-1.36,1.17-2.76,1.17-4.2,0-1.43-.39-2.73-1.18-3.91-.79-1.17-1.96-1.94-3.52-2.3-2.01-.49-24.19,4.33-66.54,14.48-42.35,10.15-65.42,14.71-69.22,13.68-3.13-.94-5.37-12.52-6.71-34.75-1.35-22.23-1.18-45.02,.49-68.38,1.67-23.36,4.52-36.75,8.54-40.17,6.03-5.35,32.9-12.52,80.62-21.5,40.76-7.67,65.91-10.88,75.43-9.63Z"/>
  <path class="cls-2" d="M1047.83,416.34c-6.08,.48-11.45-3.93-12.1-9.99-1-9.33-1.8-25.49-2.43-48.47-1.01-37.5-1.08-74.97-.19-112.4,.88-37.43,2.55-56.6,5.01-57.52,2.23-.87,6.14-2.12,11.73-3.75,5.58-1.63,11.51-3.1,17.77-4.42,6.25-1.31,12.12-2.17,17.6-2.57,.05,0,.11,0,.16-.01,5.99-.42,11.19,4.05,11.87,10.03,1.69,14.97,3.16,48.99,4.42,102.06,1.39,58.33,1.76,94.18,1.11,107.58-.21,4.43-2.97,8.32-7.11,9.92-5.09,1.97-13.08,3.97-23.97,6.01-10.16,1.9-18.12,3.07-23.87,3.52Z"/>
  <path class="cls-2" d="M1122.77,399.05c-2.24-1.55-3.65-39.53-4.22-113.94-.58-74.41,.81-112.71,4.16-114.9,4.02-1.44,17.71-4.57,41.06-9.41,23.35-4.83,36.81-7.27,40.39-7.29,3.57,.42,9.05,3.05,16.43,7.91,7.38,4.86,11.4,8.77,12.07,11.73,.67,2.74,1.46,30.04,2.37,81.89,.9,51.86,1.24,80.78,1.03,86.78,0,4.85-2.68,12.31-8.04,22.38-5.36,10.08-9.38,15.7-12.06,16.88-3.13,1.71-18.77,5.44-46.93,11.2-28.16,5.76-43.58,8.02-46.26,6.77Zm50.26-94.68c.45,3,3.46,3.75,9.05,2.22,6.03-2.04,9.16-5.29,9.38-9.75,0-39.46-2.25-59.53-6.72-60.22-2.68-.36-5.36-.07-8.04,.89-2.68,.96-5.03,2.62-7.04,5-2.01,2.37-3.02,4.88-3.02,7.53,0,2.21,.56,7.89,1.68,17.04,1.12,9.16,2.13,17.73,3.02,25.71l1.68,11.58Z"/>
  <path class="cls-2" d="M1254.88,382.65c-2.01-.49-3.14-12.57-3.36-36.23-.23-23.65,.21-49.65,1.32-77.97,1.11-28.32,2.72-54.32,4.84-77.99,2.12-23.67,4.18-35.8,6.19-36.41,97.88-23.28,147.71-32.89,149.5-28.83,1.56,4.33,2.8,13.9,3.69,28.72,.89,14.82,.79,24.32-.33,28.5-.67,2.11-7.26,4.38-19.78,6.79-12.52,2.41-25.76,4.97-39.72,7.66-13.97,2.69-22.52,5.12-25.64,7.26-5.14,3.86-6.99,7.19-5.53,10,1.45,2.81,4.53,3.76,9.22,2.85,1.12-.21,4.8-1.14,11.06-2.79,6.25-1.65,13.07-3.35,20.45-5.1,7.37-1.75,14.8-3.4,22.29-4.96,7.48-1.55,13.91-2.57,19.27-3.06,5.36-.48,8.27-.11,8.72,1.13,1.79,3.62,2.68,12.55,2.69,26.77,0,14.22-.89,23.6-2.68,28.13-.45,1.41-3.02,3.06-7.71,4.96-4.69,1.9-11.01,3.72-18.94,5.47-7.93,1.75-14.92,3.26-20.95,4.54-6.03,1.28-17.21,3.38-33.52,6.3-4.02,.78-6.99,2.62-8.88,5.52-1.9,2.9-2.34,5.63-1.34,8.19,1.01,2.57,3.3,3.72,6.87,3.47,2.23,.01,10.89-1.71,25.98-5.17,15.08-3.46,29.11-6.22,42.07-8.28,12.96-2.05,19.89-1.85,20.78,.62,1.34,3.71,2.24,15.5,2.69,35.36,.45,19.87,.12,30.68-1,32.44-.9,2.16-28.1,8.23-81.62,18.22-53.52,9.99-82.41,14.62-86.65,13.9Z"/>
  <path class="cls-2" d="M609.61,707.18c1.12,.45,2.01,6.34,2.69,17.67,.67,11.34,.62,22.98-.16,34.92-.78,11.95-2.62,18.75-5.53,20.41-4.47,2.63-108.41,25.36-171.76,36.8-63.35,11.45-95.82,16-97.38,13.65-2.01-2.04-2.19-39.31-.53-111.84,1.66-72.52,4.05-110.74,7.18-114.65,2.46-2.67,15.64-6.82,39.55-12.42,23.91-5.6,47.54-10.16,70.9-13.67,23.35-3.51,35.47-3.81,36.37-.9,1.34,2.61,1.74,27.78,1.19,75.5-.55,47.73-.04,71.89,1.53,72.46,1.34,1.29,78.24-14.91,90.65-17.19,12.4-2.28,20.84-2.53,25.31-.75Z"/>
  <path class="cls-2" d="M714.42,761.11c-3.8-1.25-6.88-20.28-9.23-57.09-2.36-36.8-2.42-73.66-.19-110.58,2.22-36.91,6.91-56.06,14.07-57.44,4.02-1.21,12.85-3.41,26.48-6.59,13.63-3.18,28.6-6.56,44.92-10.15,16.31-3.58,31.34-6.32,45.09-8.2,13.74-1.87,21.73-2.04,23.97-.49,2.9,1.87,4.75,9.62,5.54,23.24,.78,13.63,.79,27.08,0,40.34-.78,13.27-1.73,21.66-2.84,25.19-.67,2.77-14.64,6.96-41.9,12.54-27.27,5.59-41.46,9.27-42.57,11.02-.9,1.72-1.4,8.87-1.5,21.46-.11,12.59-.05,24.26,.18,35.02,.22,10.76,.56,19.07,1.01,24.94,.22,4.59,1.73,7,4.53,7.23,2.79,.24,6.2-.92,10.22-3.46,2.68-1.18,3.18-12.96,1.5-35.34-1.68-22.38-1.85-34.25-.51-35.62,2.68-2.94,14.13-6.58,34.36-10.93,20.22-4.34,31.79-5.14,34.7-2.39,2.68,2.57,4.41,19.71,5.21,51.41,.79,31.71,.29,50.6-1.5,56.67-1.12,3.74-13.46,8.22-37.04,13.43-23.58,5.21-47.55,9.44-71.9,12.71-24.36,3.26-38.55,4.29-42.57,3.08Z"/>
  <path class="cls-2" d="M885.3,656.8c-2.03-1.91-3.55-15.4-4.56-40.47-1.02-25.06-1.18-49.99-.48-74.77,.69-24.78,2.36-37.81,5.01-39.09,4.67-1.21,10.54-2.72,17.63-4.55,7.08-1.83,16.5-4.18,28.25-7.06,11.75-2.88,22.14-5.04,31.17-6.47,9.03-1.43,14.71-1.68,17.04-.75,2.96,1.12,5.1,14.18,6.43,39.19,1.33,25.01,1.88,50.05,1.65,75.12-.23,25.08-.81,38.85-1.74,41.34-.78,2.14-9.1,5.06-24.98,8.73-15.88,3.67-31.99,6.55-48.33,8.63-16.34,2.08-25.37,2.13-27.08,.16Zm42.95-38.46c.31,1.32,1.52,1.97,3.62,1.95,2.1-.02,4.16-.69,6.19-2,2.02-1.31,3.03-3.04,3.03-5.19,0-.31,0-1.99,0-5.07,0-3.07,.03-6.53,.11-10.39,.08-3.85,.11-8.47,.11-13.84,0-5.37-.04-10.62-.12-15.76-.08-5.13-.16-10.37-.24-15.73-.08-5.36-.2-10.17-.35-14.44-.16-4.27-.35-8.03-.59-11.29-.23-3.26-.51-5.39-.82-6.41-.78-2.76-1.64-4.21-2.57-4.34-2.65-.56-5.37,.15-8.17,2.15-2.8,2-4.2,4.38-4.2,7.14l3.99,93.21Z"/>
  <path class="cls-2" d="M1167.34,455.27c2.62,.34,4.8,2.1,5.78,4.55,.39,.98,.75,2.12,1.08,3.44,.89,3.58,1.34,7.74,1.34,12.47,0,4.74-.22,9.8-.67,15.18-.45,5.38-1.17,10.43-2.18,15.14-1,4.71-2.12,8.73-3.35,12.06-.54,1.45-1.08,2.65-1.64,3.6-.83,1.42-2.19,2.44-3.75,2.97-6.16,2.12-13.41,3.93-21.76,5.44-9.05,1.64-20.78,3.51-35.2,5.63-14.41,2.12-22.29,3.31-23.63,3.56-3.13,.6-5.53,2.45-7.21,5.52-1.67,3.08-2.18,6.1-1.51,9.05,0,.03,.01,.06,.02,.09,.85,3.61,4.51,5.81,8.16,5.24,3.12-.49,8.1-1.55,14.95-3.17,10.06-2.38,20.61-5.08,31.68-8.09,11.06-3.01,21.56-5.32,31.51-6.9,9.94-1.59,15.81-1.45,17.6,.41,2.46,2.39,4.25,13.62,5.37,33.69,1.12,20.07,1.46,40.06,1.02,59.99-.33,14.59-.95,24.51-1.87,29.76-.46,2.59-2.31,4.72-4.81,5.56-23.52,7.91-152.97,35.86-204.35,46.67-56.2,11.83-85.98,16.42-89.33,13.76-3.58-1.96-5.15-9.37-4.7-22.24,.44-12.87,2.68-22.56,6.7-29.07,1.79-2.77,9.16-6.23,22.12-10.38,12.96-4.15,26.42-7.79,40.39-10.93,13.96-3.13,148.69-30.55,163.44-33.62,14.75-3.06,23.01-4.88,24.81-5.45,2.68-.73,4.97-1.78,6.87-3.14,1.9-1.36,3.24-2.72,4.02-4.08,.78-1.36,1.17-2.76,1.17-4.2,0-1.43-.39-2.73-1.18-3.91-.79-1.17-1.96-1.94-3.52-2.3-2.01-.49-24.19,4.33-66.54,14.48-42.35,10.15-65.42,14.71-69.22,13.68-3.13-.94-5.37-12.52-6.71-34.75-1.35-22.23-1.18-45.02,.49-68.38,1.67-23.36,4.52-36.75,8.54-40.17,6.03-5.35,32.9-12.52,80.62-21.5,40.76-7.67,65.91-10.88,75.43-9.63Z"/>
  <g>
    <path class="cls-2" d="M528.78,637.37c-.07-2.83-.07-1.54,0,0h0Z"/>
    <path class="cls-2" d="M691.28,719.4c-.22-22.4-.76-46.58-1.62-72.55-.86-25.96-2.31-49.86-4.34-71.7-2.04-21.84-4.12-33.39-6.26-34.67-4.28-2.54-27.93,.54-70.97,9.26-43.04,8.72-67.12,15.16-72.24,19.3-2.99,1.42-5.02,20.09-6.07,56.01-.55,18.57-.88,15.07-1,12.31,.05,1.93,.12,5.77,.23,12.78,.54,35.83,1.45,54.67,2.74,56.53,2.13,2.54,15.11,1.3,38.93-3.71,15.57-3.28,26.11-6.18,31.68-8.7h0s.64-.23,1.78-.89c.6-.33,1.12-.66,1.54-.98,1.55-1.06,3.58-2.66,6.06-5.12,1.49-.69,2.96-1.02,4.42-.96,2.67,.12,4.54,1.65,5.61,4.61,.21,1.65,.05,9.05-.48,22.22-.53,13.17-.79,34.44-.79,46.56,0,12.12,.86,18.43,2.57,18.94,4.27,.86,15.48-.25,33.64-3.33,18.15-3.08,29.04-6.55,32.68-10.41,1.49-2.18,2.13-23.11,1.91-45.51Zm-43.92-95.05c-.43,.71-1.28,1.51-2.56,2.39-1.28,.88-3.04,1.64-5.29,2.28-2.24,.64-4.6,1.31-7.05,1.99-2.46,.69-5.29,1.34-8.49,1.95-3.2,.62-6.14,1.18-8.81,1.7-2.67,.52-5.61,1.03-8.81,1.54-3.2,.51-5.82,.92-7.85,1.2-2.03,.29-4.27,.56-6.73,.82-2.46,.27-3.9,.44-4.33,.52-2.99,.37-5.08-.71-6.25-3.22-1.18-2.51-1.39-5.26-.64-8.25,.75-2.99,2.19-4.79,4.32-5.42l11.85-3.23c7.9-1.94,16.34-4.04,25.31-6.3,8.97-2.25,14.52-3.48,16.66-3.69,3.84-.53,6.62,.99,8.33,4.56,1.71,3.57,1.81,7.29,.32,11.16Z"/>
  </g>
  <path class="cls-2" d="M720.58,414.78l-.14,.03-2.91-57.69h.05c-.04-.39-.07-.75-.11-1.13l-.22-4.39c-.03-.63-.12-1.24-.25-1.84s-.27-1.2-.33-1.81c-.08-.76-.16-1.5-.24-2.22-1.28-11.75-12.36-19.8-23.95-17.52-3.88,.76-8.28,1.74-13.19,2.92-18.33,4.42-30.06,7.89-35.2,10.42-1.57,.75-2.4,6.25-2.51,16.52-.04,4.08,0,8.53,.11,13.33l3.16,66.26c.08,1.63,.02,3.27-.36,4.86-.32,1.36-.78,2.63-1.39,3.8-1.01,1.96-2.24,3.36-3.69,4.18-1.46,.83-2.91,1.22-4.36,1.17-1.46-.05-2.68-1.02-3.69-2.93-1.01-1.9-1.51-4.5-1.51-7.81-.68-21.7-2.31-52.63-4.88-92.81-2.58-40.18-5.1-61.24-7.56-63.2-2.91-2.3-13.24-1.85-31.01,1.35-17.77,3.21-29.22,6.63-34.36,10.26-2.24,.88-3.46,19.41-3.67,55.61-.22,36.2,.63,72.47,2.54,108.81,1.9,36.34,4.42,55.09,7.56,56.25,3.8,1.25,18.44-.2,43.91-4.33,25.48-4.14,50.89-9.54,76.26-16.19,25.36-6.65,39.05-12.38,41.06-17.18,2.13-5.76,2.42-27.35,.86-64.74Z"/>
</svg>