<?xml version="1.0" encoding="UTF-8"?>
<svg id="Layer_1" data-name="Layer 1" xmlns="http://www.w3.org/2000/svg" viewBox="0 0 1700 633.36">
  <path d="M455.43,206.9l-86.44-86.44c-13.02-13.02-30.68-20.34-49.1-20.34h-122.25c-18.42,0-36.08,7.32-49.1,20.34L62.09,206.9c-13.02,13.02-20.34,30.68-20.34,49.1v122.25c0,18.42,7.32,36.08,20.34,49.1l86.44,86.44c13.02,13.02,30.68,20.34,49.1,20.34h122.25c18.42,0,36.08-7.32,49.1-20.34l86.44-86.44c13.02-13.02,20.34-30.68,20.34-49.1v-122.25c0-18.42-7.32-36.08-20.34-49.1Zm-89.53,188.72c-8.73,0-16.04-25.56-18.01-59.95-2.09,53.69-13.11,94.66-26.39,94.66-10.77,0-20.05-26.94-24.29-65.74-4.85,70.49-20.22,122.01-38.45,122.01s-33.6-51.52-38.45-122.01c-4.24,38.81-13.52,65.74-24.29,65.74-13.28,0-24.3-40.96-26.39-94.66-1.97,34.39-9.28,59.95-18.01,59.95-10.25,0-18.55-35.14-18.55-78.49s8.31-78.49,18.55-78.49c8.73,0,16.04,25.57,18.01,59.95,2.09-53.69,13.11-94.66,26.39-94.66,10.77,0,20.05,26.94,24.29,65.74,4.85-70.49,20.22-122.01,38.45-122.01s33.6,51.52,38.45,122.01c4.24-38.81,13.52-65.74,24.29-65.74,13.28,0,24.3,40.96,26.39,94.66,1.97-34.38,9.28-59.95,18.01-59.95,10.25,0,18.55,35.14,18.55,78.49s-8.31,78.49-18.55,78.49Z"/>
  <g>
    <path d="M558.01,363.07v-7.17h44.68v4.64c0,34.98,14.75,52.69,73.76,52.69,41.73,0,56.9-11.38,56.9-37.51s-8.43-34.99-51.85-43.84l-48.05-9.69c-48.47-9.27-74.61-32.88-74.61-77.56,0-41.73,32.46-80.51,105.38-80.51,77.98,0,109.17,43.84,109.17,94v5.06h-44.68v-4.64c0-34.56-15.18-52.69-65.76-52.69-41.73,0-58.59,11.8-58.59,36.67s11.38,32.88,50.16,41.31l48.05,10.12c53.11,10.96,76.29,37.51,76.29,80.09s-32.04,80.93-104.11,80.93c-81.35,0-116.76-37.52-116.76-91.89Z"/>
    <path d="M803.75,523.66V241.25h41.31v34.56h2.11c9.69-24.45,33.72-38.78,69.97-38.78,59.01,0,91.47,42.57,91.47,109.17s-31.61,108.75-88.52,108.75c-37.52,0-60.7-17.28-69.97-36.67h-1.26v105.38h-45.1Zm102.43-107.48c40.04,0,56.9-18.55,56.9-69.97s-16.44-70.39-56.9-70.39c-37.09,0-57.32,16.44-57.32,51.42v37.51c0,34.99,20.23,51.43,57.32,51.43Z"/>
    <path d="M1033.48,214.69l-.42-46.37h45.52v46.37h-45.1Zm0,236.05V239.99h45.52v210.75h-45.52Z"/>
    <path d="M1127.06,386.25v-107.06h-34.99v-37.94h0c20.77,0,38.6-14.8,42.41-35.22l3.11-16.63h34.99v51.85h63.23v37.94h-63.23v104.96c0,21.92,9.27,25.71,37.51,25.71h25.71v37.09c-8.85,2.11-23.19,3.79-37.52,3.79-46.79,0-71.23-17.28-71.23-64.49Z"/>
    <path d="M1242.13,346.21c0-65.33,38.36-109.17,104.12-109.17,55.22,0,93.15,34.14,93.15,84.3v3.79h-45.1v-2.53c0-30.77-16.02-44.68-51-44.68-40.47,0-56.06,22.76-56.06,68.28s15.59,67.86,56.06,67.86c34.98,0,51-13.49,51-44.26v-2.53h45.1v3.79c0,49.74-38.36,84.3-94.84,84.3-65.34,0-102.43-44.26-102.43-109.17Z"/>
    <path d="M1465.53,450.74V168.33h45.52v107.91h1.69c9.7-18.97,32.04-39.2,69.97-39.2,54.8,0,77.98,35.83,77.98,81.77v131.93h-45.52v-121.39c0-37.51-11.8-53.11-50.16-53.11s-53.95,14.33-53.95,53.95v120.55h-45.52Z"/>
  </g>
</svg>